<?xml version="1.0" standalone="no"?>
<!DOCTYPE svg PUBLIC "-//W3C//DTD SVG 20010904//EN"
 "http://www.w3.org/TR/2001/REC-SVG-20010904/DTD/svg10.dtd">
<svg version="1.0" xmlns="http://www.w3.org/2000/svg"
 width="1024.000000pt" height="1024.000000pt" viewBox="0 0 1024.000000 1024.000000"
 preserveAspectRatio="xMidYMid meet">

<g transform="translate(0.000000,1024.000000) scale(0.100000,-0.100000)"
fill="#000000" stroke="none">
<path d="M0 7054 l0 -3187 53 6 c70 9 196 42 270 73 33 13 68 24 76 24 29 0
145 -84 152 -110 4 -14 7 -94 8 -177 l1 -153 148 -2 c81 -1 318 -1 527 1 209
2 453 0 541 -4 l161 -7 22 -78 c11 -42 21 -85 21 -95 0 -16 -25 -17 -427 -11
-236 4 -466 9 -513 13 -47 4 -110 6 -140 5 -131 -5 -571 -3 -637 3 -113 10
-97 38 52 90 44 15 96 36 115 47 l35 19 -34 -7 c-21 -4 -31 -2 -27 4 10 17
-74 -7 -137 -39 -32 -16 -82 -52 -110 -80 -69 -68 -69 -68 -82 166 -3 66 -9
130 -11 141 -4 17 0 22 19 26 14 3 32 1 40 -4 21 -11 32 9 17 27 -16 19 -60
20 -60 1 0 -18 -26 -27 -56 -20 l-24 6 0 -1866 0 -1866 2559 0 c2429 0 2560 1
2565 18 14 45 45 215 41 222 -3 5 -1 11 5 15 5 3 10 21 10 40 0 18 7 61 16 95
9 34 13 74 10 88 -4 17 -3 22 2 14 11 -16 37 177 28 206 -4 11 0 24 9 32 8 7
15 29 15 49 0 20 5 54 10 76 5 22 11 58 14 80 3 22 14 103 26 180 12 77 25
176 30 220 6 44 12 91 15 105 33 145 40 224 37 440 -3 213 9 360 28 360 10 0
19 -60 21 -130 2 -122 14 -108 47 56 18 87 47 211 63 274 17 63 40 153 51 199
21 86 52 132 99 144 23 6 23 9 0 -89 -24 -104 -39 -185 -46 -264 -4 -36 -9
-81 -11 -100 -2 -19 -7 -62 -9 -95 -7 -77 -33 -284 -45 -355 -5 -30 -13 -84
-16 -120 -3 -36 -10 -78 -14 -95 -5 -16 -12 -50 -15 -75 -3 -25 -9 -63 -15
-85 -5 -22 -16 -78 -24 -125 -8 -47 -22 -123 -30 -170 -9 -47 -23 -132 -31
-190 -9 -58 -22 -138 -29 -178 -11 -60 -11 -74 0 -83 20 -17 17 -33 -11 -63
-14 -15 -25 -32 -26 -39 0 -7 -1 -37 -3 -67 -2 -55 -20 -124 -38 -147 -5 -7
-5 -14 2 -18 5 -3 7 -17 4 -31 -4 -16 -2 -24 6 -24 9 0 8 -6 -3 -18 -22 -24
-23 -72 -2 -72 15 0 21 -16 8 -22 -22 -9 -55 -74 -60 -116 -4 -37 -1 -56 16
-85 12 -21 19 -42 16 -48 -4 -5 19 -9 54 -9 61 0 61 0 61 29 0 17 5 33 10 36
6 4 8 10 5 15 -3 4 4 52 15 107 10 54 22 114 25 133 11 68 16 96 35 180 33
150 79 402 110 610 11 74 25 162 30 195 8 48 43 261 76 470 3 17 9 46 14 65 4
19 11 53 14 75 3 22 17 99 31 170 15 72 35 173 45 225 11 52 30 129 44 170 14
41 26 83 26 92 0 9 5 20 12 24 13 8 9 -41 -17 -201 -48 -300 -90 -661 -120
-1045 -15 -190 -38 -413 -67 -669 -8 -67 -18 -109 -28 -119 -14 -14 -13 -15 4
-9 14 6 17 4 12 -9 -4 -11 -2 -15 8 -11 19 7 39 -17 34 -40 -2 -11 -12 -18
-28 -18 -22 0 -25 -4 -22 -29 2 -16 -2 -32 -10 -37 -11 -7 -11 -11 1 -18 10
-7 12 -13 5 -23 -6 -7 -10 -29 -8 -48 1 -19 0 -27 -3 -18 -8 33 -19 18 -18
-24 1 -24 -3 -46 -9 -51 -8 -5 -7 -10 3 -16 11 -7 10 -11 -5 -21 -17 -10 -16
-11 6 -5 61 14 90 17 90 8 0 -6 -15 -13 -33 -16 -19 -3 -48 -19 -68 -39 -31
-32 -34 -39 -31 -86 l3 -52 155 0 154 0 0 38 c0 21 6 44 13 51 10 11 8 12 -8
8 -20 -6 -56 29 -71 67 -12 32 27 16 42 -16 l14 -33 -6 39 c-5 28 -4 37 5 32
7 -4 11 0 11 12 0 10 3 22 7 26 8 8 8 6 22 156 5 63 11 169 12 235 1 66 5 149
10 185 4 36 12 151 19 255 6 105 16 224 21 265 5 41 13 147 19 235 22 356 68
805 100 970 5 28 16 93 25 145 27 164 47 264 55 285 5 11 14 44 19 73 11 54
38 128 45 121 5 -5 -17 -183 -39 -314 -20 -126 -31 -336 -18 -359 11 -20 27
89 43 299 11 137 13 157 36 272 15 78 30 123 40 123 12 0 -8 -257 -37 -485
-25 -189 -29 -240 -39 -415 -12 -226 -2 -429 55 -1105 12 -143 17 -181 26
-189 5 -6 9 -24 9 -42 0 -40 9 -66 21 -58 5 3 9 0 9 -5 0 -6 -5 -11 -11 -11
-8 0 -9 -4 0 -13 6 -8 8 -17 4 -20 -3 -4 0 -13 7 -22 8 -9 10 -27 6 -49 -5
-26 -3 -35 9 -40 9 -3 13 -11 10 -17 -4 -6 2 -13 14 -16 24 -6 29 -43 6 -43
-17 0 -20 -32 -5 -61 8 -14 7 -19 -2 -19 -8 -1 -7 -5 5 -14 9 -7 17 -16 17
-20 0 -3 -8 -6 -17 -6 -13 0 -11 -4 7 -13 25 -13 36 -43 39 -101 1 -28 0 -29
-14 -10 -13 17 -14 16 -4 -13 6 -18 16 -31 22 -30 16 3 10 -30 -14 -76 -11
-21 -15 -36 -9 -32 5 3 10 0 11 -7 0 -7 5 -3 11 10 6 12 14 22 18 22 10 0 -4
-92 -18 -117 -16 -29 -15 -38 3 -23 12 10 15 10 15 -3 0 -8 -6 -18 -12 -20
-10 -4 -10 -8 -2 -14 6 -4 15 -27 19 -50 19 -114 24 11 10 262 -2 55 -7 111
-9 125 -3 14 -8 66 -11 115 -4 50 -8 110 -10 135 -2 25 -11 178 -20 340 -8
162 -17 315 -20 340 -29 286 -25 1272 7 1580 5 52 13 128 16 169 7 77 26 104
38 56 7 -27 -3 -362 -11 -374 -6 -11 -16 -257 -15 -381 0 -63 2 -206 3 -316 2
-158 -1 -200 -10 -197 -7 3 -13 0 -13 -6 0 -6 6 -11 14 -11 11 0 15 -18 18
-67 3 -58 0 -71 -17 -85 -20 -17 -20 -17 1 -18 19 0 22 -6 23 -51 0 -28 3 -55
6 -60 4 -5 -1 -9 -9 -9 -9 0 -16 6 -16 13 0 19 -20 -15 -20 -34 0 -9 7 -19 15
-23 13 -5 14 -2 4 15 -6 11 -8 23 -5 27 3 3 6 0 6 -6 0 -7 7 -12 15 -12 13 0
16 -11 14 -47 0 -27 2 -67 6 -90 6 -35 4 -44 -9 -49 -15 -6 -15 -8 -2 -18 11
-8 17 -37 21 -96 3 -47 7 -105 9 -130 3 -25 12 -162 21 -305 9 -143 20 -300
26 -350 5 -49 16 -160 24 -245 23 -243 22 -240 51 -240 23 0 24 3 24 58 0 31
-4 100 -10 152 -18 173 -40 434 -41 475 0 25 -3 33 -7 23 -4 -9 -7 29 -8 85
-1 113 -7 199 -29 452 -20 229 -35 425 -41 548 -3 56 -12 212 -19 347 -12 210
-12 811 0 920 1 14 3 36 4 50 l2 25 24 -28 c14 -15 25 -35 25 -43 0 -8 4 -14
8 -14 7 0 43 -61 47 -80 10 -46 65 -99 95 -93 8 2 25 21 38 43 25 44 27 54 10
44 -10 -5 -10 -4 -1 6 9 10 21 7 57 -14 25 -15 46 -33 46 -41 0 -8 4 -15 9
-15 5 0 7 -8 4 -19 -3 -11 3 -24 15 -33 12 -8 26 -35 33 -63 6 -28 22 -81 34
-120 13 -38 36 -117 50 -175 15 -58 37 -136 48 -175 12 -38 20 -73 19 -77 -1
-3 8 -35 19 -69 12 -35 25 -84 29 -109 4 -25 18 -78 29 -118 12 -41 23 -86 25
-100 6 -46 26 -111 36 -117 6 -4 8 -10 5 -15 -3 -5 8 -49 25 -97 16 -48 30
-98 30 -110 0 -12 4 -24 9 -27 4 -3 16 -34 26 -68 9 -35 22 -68 27 -75 5 -7 7
-22 3 -35 -5 -18 -4 -20 4 -8 8 12 11 8 11 -18 0 -18 4 -40 9 -50 12 -22 48
-120 56 -152 6 -23 10 -34 35 -92 5 -13 20 -60 34 -106 15 -46 33 -96 41 -111
20 -40 45 -113 45 -134 0 -10 5 -15 10 -12 6 3 10 -2 10 -12 0 -11 5 -24 12
-31 7 -7 9 -12 5 -12 -7 0 34 -119 64 -187 11 -23 19 -44 19 -47 0 -3 12 -31
26 -63 41 -89 84 -194 95 -230 9 -31 13 -33 55 -33 42 0 45 1 38 23 -3 12 -16
40 -27 62 -29 58 -123 274 -167 385 -21 52 -66 165 -100 250 -123 311 -200
518 -261 705 -134 408 -439 1469 -426 1482 9 8 29 -28 53 -98 30 -87 38 -99
64 -92 13 4 31 -6 54 -29 23 -23 44 -35 63 -35 30 0 88 -25 168 -73 28 -16 64
-36 80 -44 17 -8 37 -21 46 -28 18 -15 59 -99 59 -121 0 -32 31 -85 83 -142
64 -72 108 -159 197 -395 39 -103 154 -396 182 -465 12 -27 40 -104 64 -170
23 -66 54 -151 68 -188 27 -74 165 -359 177 -367 4 -3 22 -35 41 -71 18 -36
52 -102 74 -147 23 -44 39 -83 36 -86 -3 -3 0 -6 7 -6 10 0 71 -115 71 -135 0
-3 9 -15 20 -27 11 -12 20 -29 20 -38 0 -8 16 -46 36 -83 l35 -67 85 0 c83 0
103 9 64 30 -22 12 -27 36 -8 43 7 3 3 6 -9 6 -16 1 -23 7 -23 20 0 11 -10 27
-22 36 -20 13 -21 17 -8 25 13 9 13 10 0 11 -8 1 -18 1 -22 0 -5 0 -8 5 -8 12
0 24 -45 107 -56 103 -7 -3 -9 5 -6 19 3 16 -2 28 -17 36 -19 13 -19 14 -3 33
16 18 16 19 -3 11 -11 -4 -31 -10 -45 -12 l-25 -5 28 27 c26 25 27 28 13 44
-9 10 -16 21 -16 25 0 5 -11 21 -25 38 -14 16 -25 36 -25 44 0 8 -4 14 -10 14
-5 0 -10 7 -10 15 0 8 -5 15 -11 15 -6 0 -9 10 -8 23 2 12 -5 42 -15 67 -11
31 -16 63 -13 98 3 32 0 58 -7 65 -22 23 -45 65 -49 88 -3 22 -20 59 -61 134
-9 17 -16 35 -16 41 0 6 -7 17 -15 24 -8 7 -15 19 -15 28 0 8 -6 23 -13 31 -7
9 -23 43 -36 76 -13 33 -34 84 -47 113 -13 29 -21 58 -18 64 4 6 3 8 -2 5 -5
-3 -20 22 -33 56 -13 34 -34 85 -47 112 -43 94 -145 340 -156 375 -5 19 -14
40 -19 46 -5 6 -24 53 -43 105 -36 99 -58 153 -82 207 -8 18 -14 40 -12 50 1
9 -1 22 -5 29 -4 7 1 14 13 18 11 3 20 12 20 20 0 7 4 15 10 17 5 2 12 19 16
38 l6 35 -20 -35 c-20 -37 -68 -78 -78 -67 -3 3 -3 11 2 18 4 7 8 24 9 38 2
14 6 37 10 51 6 22 5 21 -13 -6 -23 -36 -82 -82 -82 -63 0 9 -4 8 -15 -1 -18
-15 -20 -6 -2 12 20 20 47 100 53 154 4 36 1 54 -10 69 -13 16 -17 17 -25 6
-10 -16 -39 -8 -75 20 -25 20 -26 25 -26 124 0 114 -15 193 -59 312 -50 136
-61 153 -95 154 -17 0 -39 4 -49 7 -16 7 -107 153 -107 173 0 5 22 9 49 9 56
0 61 6 61 83 0 50 19 151 35 192 7 17 5 16 -13 -4 -30 -33 -28 -10 2 26 21 25
46 66 46 75 0 13 -81 -9 -108 -29 -32 -24 -33 -27 -27 -77 3 -28 14 -76 22
-106 21 -71 23 -85 13 -74 -4 5 -18 40 -30 77 -13 39 -28 66 -34 63 -6 -2 -35
-14 -64 -27 l-54 -22 -25 29 c-19 22 -22 31 -11 37 7 4 39 23 72 42 32 19 63
35 69 35 21 0 -2 224 -47 469 -48 257 -53 294 -31 222 8 -24 13 -47 12 -50 -1
-5 21 -104 43 -191 5 -19 16 -75 26 -125 9 -49 20 -93 23 -97 4 -4 16 -5 28
-2 24 7 36 39 24 63 -5 9 -11 51 -14 94 -4 43 -9 82 -12 87 -8 14 -47 291 -47
334 1 65 15 70 106 35 43 -16 88 -28 99 -26 19 3 18 4 -8 11 -45 11 -184 78
-201 98 -15 15 -14 16 7 11 14 -4 20 -2 16 4 -4 7 13 5 41 -4 26 -8 62 -17 81
-19 18 -3 36 -5 40 -6 24 -3 41 4 41 17 0 18 -5 18 -31 4 -16 -8 -26 -7 -44 5
-16 11 -25 12 -27 4 -4 -12 -58 18 -58 32 0 5 -9 6 -20 3 -11 -3 -20 -1 -20 5
0 14 71 24 145 20 l60 -3 2 -45 c2 -65 3 -67 14 -47 10 17 49 24 49 9 0 -5
-14 -24 -30 -42 -29 -32 -30 -38 -25 -95 4 -33 13 -96 22 -139 9 -46 13 -108
11 -145 -5 -73 12 -144 62 -256 26 -57 50 -84 50 -55 0 6 6 10 13 10 7 0 22 8
33 18 10 10 58 45 106 77 154 107 287 242 374 380 14 22 2 15 -44 -27 -35 -32
-73 -63 -84 -69 l-22 -12 20 25 c10 14 56 70 102 124 84 101 105 143 119 242
6 44 23 68 23 33 0 -12 5 -21 11 -21 8 0 10 20 7 60 -2 33 -1 55 4 48 19 -31
6 39 -22 110 -42 109 -135 294 -143 286 -4 -4 -7 -1 -7 7 0 8 -16 34 -35 58
-19 24 -35 48 -35 54 0 5 14 -8 30 -29 17 -22 46 -55 65 -75 19 -21 48 -59 65
-85 32 -52 39 -48 15 9 -18 44 1 43 27 -1 9 -15 26 -36 37 -46 20 -18 20 -18
9 20 -5 22 -21 60 -34 86 -29 58 -31 77 -5 54 19 -17 19 -17 14 3 -4 17 -2 20
11 15 9 -3 16 -11 16 -18 0 -6 5 -3 11 7 8 13 6 21 -6 33 -9 9 -14 23 -11 30
3 9 0 11 -11 7 -11 -4 -14 -2 -9 5 8 13 -9 34 -85 108 -89 86 -186 160 -311
236 -65 39 -118 75 -118 79 0 5 -8 9 -17 9 -13 0 -14 3 -6 11 9 9 23 9 55 1
23 -6 43 -10 45 -9 3 4 -83 60 -137 88 -79 43 -304 196 -350 239 -55 51 -34
42 37 -17 60 -48 223 -146 280 -168 l38 -15 -30 22 c-58 43 -151 144 -193 208
-24 36 -73 125 -109 198 -53 107 -68 149 -76 210 -7 46 -17 82 -27 89 -10 8
-11 12 -2 13 6 0 12 12 12 26 0 16 14 42 36 66 49 54 43 72 -25 75 -59 3 -73
9 -51 23 12 7 11 10 -5 16 -63 22 -86 35 -80 44 3 5 13 10 21 10 33 0 1 19
-61 35 -76 21 -92 35 -41 35 42 0 46 12 10 28 -15 7 -22 17 -18 24 5 7 2 9 -9
5 -10 -4 -14 -2 -11 7 3 7 -23 33 -58 61 -35 27 -67 53 -73 58 -20 19 73 -36
96 -57 28 -26 142 -104 164 -112 11 -5 15 1 15 20 0 14 -4 26 -9 26 -5 0 -14
24 -21 53 -31 131 -138 376 -205 468 -76 102 -170 165 -285 190 -74 16 -251 5
-266 -16 -13 -17 -109 -22 -119 -5 -3 5 14 14 37 21 l43 12 -30 7 c-16 4 -39
11 -50 16 -17 7 -18 6 -8 -8 7 -8 11 -17 8 -20 -7 -7 -99 18 -164 44 -30 12
-75 22 -100 22 -50 0 -116 -27 -125 -50 -5 -13 -2 -13 16 1 34 23 56 20 33 -5
-18 -19 -17 -20 3 -20 35 0 27 -36 -18 -83 -26 -28 -40 -37 -40 -26 0 24 -30
79 -30 56 0 -26 -20 -11 -21 16 -3 46 -23 -81 -23 -146 l-1 -68 -40 5 c-22 3
-34 3 -26 0 9 -4 -3 -16 -35 -33 -27 -14 -59 -42 -72 -61 -21 -31 -23 -43 -19
-100 3 -36 15 -92 28 -125 22 -59 88 -168 129 -214 24 -26 18 -37 -20 -44 -25
-4 -25 -4 6 -17 24 -10 33 -23 45 -64 l16 -51 21 44 c15 34 18 50 11 64 -14
24 -3 51 17 43 12 -5 14 -1 9 17 -13 41 -54 104 -72 109 -26 7 -43 -1 -43 -20
-1 -14 -3 -14 -16 3 -8 11 -14 34 -12 50 3 26 7 30 38 33 38 4 50 15 50 50 0
28 -23 29 -61 1 -29 -20 -29 -20 -29 0 0 33 51 184 68 204 12 14 25 17 46 13
18 -4 59 2 102 15 l72 21 30 -21 c17 -11 33 -21 37 -21 9 0 54 -53 55 -64 0
-10 59 -83 112 -139 20 -21 31 -36 24 -34 -61 24 -314 76 -334 69 -18 -6 -14
-57 5 -74 13 -12 50 -17 143 -21 138 -5 192 -20 273 -75 51 -36 69 -40 60 -14
-5 14 -2 13 18 -4 13 -12 42 -33 64 -46 22 -14 61 -45 88 -70 l47 -44 0 -67
c0 -42 -8 -89 -20 -124 -23 -65 -24 -73 -10 -73 20 0 69 60 99 123 33 69 52
93 44 55 -4 -22 -3 -22 11 2 23 38 19 10 -5 -35 -20 -37 -20 -40 -4 -68 17
-28 17 -30 -5 -59 -12 -16 -20 -31 -18 -34 8 -7 83 18 98 33 13 13 13 14 -7 8
-14 -4 -23 -2 -23 4 0 6 5 11 10 11 6 0 10 10 10 22 0 17 3 19 12 10 22 -22
30 -12 23 31 -7 42 -7 42 13 23 12 -10 24 -31 27 -47 7 -30 20 -38 28 -16 3 6
6 3 6 -8 2 -51 -83 -133 -161 -157 -29 -9 -41 -9 -50 0 -21 21 -46 13 -60 -18
-7 -17 -16 -30 -19 -30 -4 0 -9 -10 -12 -22 -4 -13 -32 -48 -64 -79 -54 -52
-91 -76 -233 -150 -56 -30 -91 -58 -58 -46 12 4 15 2 11 -9 -3 -8 -2 -14 3
-12 16 4 58 -14 72 -31 13 -15 13 -15 9 0 -3 10 0 16 8 15 11 -1 175 148 175
158 0 2 18 23 39 46 22 24 45 55 52 69 27 53 51 83 61 73 5 -5 9 -65 9 -133
-1 -217 34 -382 107 -505 29 -49 50 -70 107 -106 104 -67 131 -82 235 -135
103 -53 183 -101 188 -114 2 -4 10 -5 18 -2 20 7 18 -10 -4 -27 -85 -71 -169
-117 -302 -165 -138 -50 -152 -64 -19 -19 121 40 232 94 271 131 23 22 30 24
43 13 13 -10 15 -9 15 7 0 11 3 23 7 27 7 6 30 -37 92 -174 18 -41 42 -93 52
-115 51 -112 61 -182 34 -235 -21 -40 -25 -38 -19 10 6 48 -7 51 -42 12 -14
-15 -23 -21 -19 -15 3 7 2 13 -3 13 -15 0 -163 -161 -157 -171 4 -5 2 -9 -4
-9 -5 0 -12 4 -15 9 -3 5 -15 7 -26 4 -19 -5 -20 0 -20 81 0 53 -4 85 -9 81
-25 -15 -51 129 -32 178 13 34 9 34 -29 -3 -31 -30 -32 -34 -33 -128 -2 -106
-12 -129 -91 -217 -20 -22 -36 -45 -36 -51 0 -19 -30 -25 -36 -9 -9 23 -201
10 -229 -15 -11 -9 -25 -15 -32 -13 -6 2 -23 -3 -37 -12 -26 -18 -50 -11 -76
20 -10 12 -10 19 -2 27 15 15 15 28 2 28 -5 0 -10 -7 -10 -15 0 -15 -21 -20
-34 -8 -7 7 -40 14 -71 14 -11 -1 -44 -1 -74 -1 -34 0 -58 4 -63 12 -5 9 -8 6
-8 -9 0 -24 -14 -36 -43 -38 -27 -2 -123 94 -143 143 -18 47 -13 119 12 157 8
12 11 25 7 30 -5 4 -3 5 4 2 13 -8 43 1 43 13 0 4 -28 25 -62 47 -93 59 -92
58 -80 37 11 -21 10 -30 -13 -189 -9 -60 -20 -113 -24 -117 -4 -4 -29 7 -56
25 -98 64 -165 98 -165 83 0 -7 7 -19 15 -26 8 -7 15 -16 15 -20 0 -11 -48
-28 -102 -35 -28 -4 -49 -12 -52 -21 -8 -21 -8 -24 5 -24 5 0 8 4 5 9 -8 12
45 21 123 20 71 0 104 -9 99 -24 -2 -6 9 -11 25 -13 24 -3 41 -32 18 -32 -5 0
-9 -15 -8 -34 1 -20 6 -32 13 -29 7 2 15 0 19 -6 3 -6 4 -11 2 -11 -2 0 -28
-5 -57 -10 -73 -14 -187 -15 -203 -1 -15 11 -77 -6 -77 -22 0 -4 55 -7 123 -5
67 2 128 -1 136 -6 10 -6 12 -26 7 -85 -5 -57 -4 -72 4 -58 6 9 8 22 5 27 -11
18 7 10 26 -11 14 -16 128 -291 169 -409 22 -61 40 -152 40 -199 0 -57 -26
-134 -43 -124 -7 4 -8 0 -4 -11 4 -11 -1 -29 -12 -45 -11 -15 -32 -57 -46 -94
-15 -37 -31 -70 -36 -72 -4 -3 -6 -12 -2 -20 3 -8 0 -15 -7 -15 -18 0 7 -28
41 -46 37 -18 45 -18 28 2 -12 15 -11 16 6 10 18 -5 23 1 34 38 11 39 53 90
73 91 4 0 15 10 23 22 10 15 21 20 33 16 32 -12 167 -120 269 -217 57 -53 107
-96 112 -96 6 0 31 28 58 62 26 35 56 72 66 83 11 11 45 51 76 90 87 107 108
125 108 90 0 -8 -4 -15 -8 -15 -4 0 -6 -8 -4 -18 2 -9 4 -20 4 -23 1 -4 10 -9
21 -12 14 -3 20 -14 20 -32 0 -14 7 -33 15 -42 10 -9 13 -23 9 -35 -4 -13 -1
-24 7 -29 12 -8 12 -10 0 -18 -8 -5 -11 -16 -8 -24 3 -9 1 -18 -6 -20 -7 -2
-9 -8 -5 -12 5 -5 18 0 30 11 l23 19 -20 -25 c-40 -49 -88 -90 -98 -83 -6 4
-7 1 -2 -7 5 -8 2 -17 -6 -24 -22 -16 -149 -209 -149 -226 -1 -8 -9 -25 -20
-38 -18 -22 -21 -22 -42 -8 -15 10 -25 12 -34 6 -13 -11 -57 1 -69 19 -3 6
-10 11 -15 11 -20 0 14 -50 55 -80 26 -20 41 -38 38 -46 -6 -15 -23 -19 -23
-6 0 5 -11 14 -24 21 -13 7 -49 47 -80 89 -64 88 -189 221 -258 275 -58 46
-298 207 -308 207 -4 0 -7 -14 -8 -31 0 -17 -5 -36 -10 -42 -5 -7 -23 -50 -41
-97 -18 -47 -37 -94 -41 -105 -10 -24 -18 -58 -32 -140 -5 -33 -16 -78 -24
-99 -8 -22 -12 -41 -10 -43 6 -7 50 20 64 40 7 10 21 16 30 15 9 -2 17 2 17 9
0 15 13 28 28 28 7 0 12 7 12 15 0 8 5 21 9 29 7 11 5 13 -7 8 -11 -4 -9 4 9
30 13 20 24 46 24 58 0 12 7 28 15 35 8 7 15 20 15 29 0 9 9 27 20 41 11 14
20 30 20 35 1 6 15 21 31 34 l30 23 69 -46 c64 -42 86 -66 60 -66 -5 0 -10 -5
-10 -10 0 -6 7 -6 18 1 15 9 24 8 46 -6 l27 -18 -48 -49 c-56 -58 -273 -234
-365 -296 -34 -24 -119 -80 -187 -125 -68 -45 -139 -93 -159 -106 l-35 -23 5
23 c14 63 84 276 138 416 33 86 58 158 57 160 -3 2 -240 5 -308 4 -18 -1 -30
-10 -40 -28 -8 -16 -28 -52 -45 -81 -25 -42 -33 -50 -37 -35 -34 123 -87 414
-87 475 0 85 50 296 96 406 24 58 44 105 44 106 0 1 -35 0 -77 -1 l-78 -3 59
20 c33 11 61 18 64 15 3 -3 11 0 18 6 8 7 14 7 19 -1 10 -16 50 45 74 112 11
29 36 112 56 183 20 72 45 161 56 198 20 67 20 69 1 100 -34 55 -36 84 -8 102
36 24 49 70 31 103 -24 44 -65 89 -65 72 0 -8 -7 -24 -15 -34 -15 -20 -15 -20
-30 0 -8 10 -15 27 -15 37 0 30 -15 18 -30 -25 -8 -24 -19 -43 -24 -43 -5 0
-14 18 -21 40 l-11 40 -10 -39 c-14 -59 -30 -54 -52 16 -19 64 -21 64 -36 -5
-9 -40 -23 -25 -31 36 -11 81 -21 99 -27 51 -3 -21 -11 -52 -18 -69 l-11 -30
-19 25 c-11 14 -20 32 -21 40 0 8 -8 33 -18 55 l-18 40 -17 -53 c-10 -28 -21
-52 -26 -52 -4 0 -11 26 -15 58 l-8 57 -15 -47 c-11 -34 -21 -48 -34 -48 -10
0 -18 -3 -18 -7 0 -5 -7 -49 -14 -100 -16 -102 -9 -155 32 -243 12 -25 22 -52
22 -61 0 -9 16 -29 35 -43 20 -15 42 -38 51 -51 18 -27 46 -125 36 -125 -4 0
-17 23 -30 50 -13 28 -27 48 -31 46 -4 -3 -13 -31 -21 -63 -24 -110 -121 -275
-228 -391 -61 -65 -133 -90 -205 -72 -81 22 -227 113 -227 143 0 6 5 6 13 0 7
-6 36 -5 77 1 l65 11 -50 12 c-28 7 -70 15 -94 19 -28 4 -54 16 -70 32 -14 15
-30 25 -35 24 -5 -2 -6 11 -3 28 4 16 3 30 -2 30 -15 0 -29 -24 -35 -65 -9
-51 -26 -81 -26 -45 0 61 13 102 35 110 25 10 42 30 26 30 -6 0 -11 7 -11 16
0 8 5 12 10 9 7 -4 9 2 4 18 -3 14 -1 34 5 44 9 15 10 12 11 -20 0 -42 2 -42
72 -13 27 12 28 13 11 28 -10 9 -31 22 -48 31 -70 35 -115 114 -78 137 13 8
14 13 6 16 -7 3 -13 17 -13 30 0 14 -4 23 -8 20 -10 -6 -52 65 -52 88 0 9 -4
16 -9 16 -9 0 -24 38 -22 54 1 5 -5 16 -13 25 -8 9 -22 56 -31 105 -28 147 -5
260 86 435 24 46 57 109 72 140 99 196 269 457 289 445 7 -4 8 -2 4 4 -3 6 15
33 40 59 26 26 41 39 32 28 -26 -34 -27 -41 -8 -41 10 0 16 6 13 13 -3 8 3 13
14 13 23 0 66 43 56 55 -5 4 -1 4 7 -1 8 -4 22 -9 30 -9 34 0 110 -237 110
-344 0 -16 5 -41 11 -55 l11 -24 127 4 c69 3 160 8 201 11 41 4 81 7 87 6 7 0
10 3 7 8 -3 5 -11 9 -18 9 -20 0 -64 38 -79 68 -8 17 -20 26 -33 25 -11 -1
-25 7 -32 17 -12 19 -9 20 50 21 35 0 85 4 111 7 l49 7 -33 24 c-107 79 -350
177 -363 147 -5 -13 4 193 10 212 2 6 -3 12 -10 12 -8 0 -16 7 -20 15 -3 8
-17 15 -31 15 -15 0 -63 19 -108 43 -45 23 -111 56 -147 72 l-65 29 34 5 c28
5 32 8 20 17 -20 16 -87 34 -129 34 -20 0 -40 4 -45 9 -22 20 -162 61 -207 61
-41 0 -66 9 -151 56 -55 31 -110 59 -122 64 -18 7 -22 22 -33 105 -7 53 -17
105 -22 115 -6 11 -37 40 -70 65 -33 25 -60 48 -60 50 0 12 73 45 101 46 28 0
30 2 14 8 -11 5 -28 18 -39 30 -10 11 -22 18 -26 16 -4 -3 -20 7 -34 20 -15
14 -31 25 -36 25 -5 0 -16 10 -24 23 -8 12 -31 31 -51 41 -19 11 -35 26 -35
34 0 8 -6 12 -15 8 -8 -3 -14 -2 -12 2 2 8 -16 33 -45 60 -10 9 -18 20 -18 24
0 4 -11 19 -25 34 -14 15 -25 37 -25 49 0 11 -9 31 -19 42 -12 12 -21 39 -23
63 l-3 43 -50 3 c-76 4 -76 4 -128 56 -68 68 -99 143 -101 240 -1 68 2 79 24
103 53 58 135 68 179 21 13 -14 31 -62 47 -125 14 -57 36 -127 49 -156 24 -55
64 -91 89 -82 13 5 13 12 0 49 -26 71 -46 108 -61 108 -7 0 -13 11 -13 24 0
13 -5 26 -12 28 -9 3 -9 20 -2 64 7 46 13 59 26 59 10 0 24 10 33 21 18 27 57
35 74 16 11 -11 9 -23 -9 -70 -25 -67 -36 -167 -22 -202 11 -25 11 -25 11 7 1
41 26 145 49 205 21 55 38 76 113 138 70 58 171 159 239 239 43 50 58 75 67
120 7 31 23 91 34 134 12 42 20 80 17 83 -3 3 -30 -2 -59 -10 -49 -13 -51 -14
-20 -15 33 -1 34 -1 28 -40 -7 -58 -86 -207 -140 -267 -91 -100 -234 -182
-348 -200 l-44 -7 19 22 c11 12 26 19 33 17 7 -3 19 1 27 9 8 8 20 15 27 15 7
0 10 2 7 5 -3 3 -67 -8 -144 -25 -76 -16 -153 -30 -172 -30 -31 0 -33 2 -21
17 13 15 11 16 -16 9 -50 -12 -244 -110 -245 -123 0 -7 -4 -13 -10 -13 -5 0
-10 -6 -10 -14 0 -8 -4 -16 -10 -18 -5 -1 -11 -15 -12 -30 -1 -16 -6 -28 -9
-28 -4 0 -12 -24 -18 -52 -10 -47 -12 -98 -10 -240 l1 -37 66 75 c41 48 68 71
72 63 6 -8 9 -8 13 2 8 20 35 -16 49 -66 24 -87 37 -120 47 -118 6 2 11 -2 11
-8 0 -19 103 -160 111 -152 4 4 9 26 11 47 3 36 6 41 37 49 44 11 52 2 68 -76
7 -34 28 -93 47 -132 33 -66 104 -170 130 -188 16 -12 -11 -3 -141 49 -61 24
-149 54 -195 65 -45 12 -84 23 -86 24 -2 2 7 23 20 47 20 34 31 44 56 46 22 2
29 7 25 18 -3 9 2 14 16 14 17 0 13 7 -23 40 -24 22 -54 63 -67 90 -13 28 -28
50 -33 50 -4 0 -4 -6 1 -12 6 -7 13 -22 16 -33 3 -11 10 -35 15 -52 14 -42 9
-41 -24 5 l-26 37 6 -38 c6 -33 4 -38 -18 -47 -33 -12 -57 -3 -91 38 -22 26
-28 47 -34 105 -6 64 -8 68 -14 37 -16 -73 -41 -150 -49 -150 -4 0 -8 -23 -8
-52 0 -54 18 -118 33 -118 4 0 5 -4 2 -10 -24 -39 -65 56 -65 150 0 42 -3 51
-12 42 -10 -10 -14 -135 -6 -195 2 -14 -9 -23 -47 -36 -47 -16 -50 -19 -57
-62 -6 -29 -3 -76 8 -140 19 -106 14 -163 -16 -182 -11 -6 -20 -19 -20 -29 0
-20 -57 -65 -125 -98 -45 -22 -103 -54 -204 -112 -41 -23 -51 -16 -29 23 18
31 9 40 -13 13 -7 -9 -41 -29 -74 -45 -38 -18 -74 -44 -94 -69 -18 -22 -67
-60 -109 -85 -75 -44 -77 -45 -82 -23 -5 21 -7 21 -32 -12 -26 -34 -47 -48
-133 -87 -39 -17 -44 -19 -64 -22 -5 0 -13 -10 -16 -22 -4 -11 -9 -19 -11 -17
-2 2 2 21 8 42 13 43 36 61 128 101 173 75 285 137 272 149 -4 4 -2 7 3 6 23
-5 35 1 32 18 -6 37 -37 60 -37 26 0 -9 5 -12 12 -8 7 4 8 3 4 -4 -10 -16 -46
-15 -46 1 -1 20 -42 64 -47 50 -8 -24 -22 -13 -29 22 -6 35 -24 49 -24 20 0
-9 -7 -32 -16 -53 l-16 -37 -15 35 c-15 34 -16 34 -26 13 -14 -32 -23 -29 -43
17 -21 46 -26 48 -39 18 -6 -13 -14 -23 -20 -23 -5 0 -14 10 -20 23 -5 12 -15
22 -21 22 -7 0 -14 9 -17 20 -8 31 -27 24 -27 -10 0 -40 -17 -38 -37 5 -12 25
-22 34 -34 30 -13 -4 -19 5 -29 42 -16 60 -17 61 -34 37 -15 -19 -15 -19 -30
1 -8 11 -16 28 -16 38 0 33 -20 17 -20 -18 0 -26 -3 -33 -15 -29 -16 7 -15 8
-39 -86 -23 -88 -27 -94 -66 -85 -28 6 -31 10 -27 34 4 20 0 30 -14 40 -17 10
-18 15 -9 27 10 11 10 17 0 29 -6 8 -9 19 -5 25 4 6 -1 20 -10 30 -11 12 -14
26 -10 39 3 12 2 21 -3 21 -6 0 -10 10 -9 23 0 12 -14 84 -32 160 -17 76 -32
162 -34 192 -1 29 -3 52 -5 51 -1 -2 -11 -38 -23 -82 -11 -43 -31 -116 -45
-162 l-25 -83 -25 37 c-14 20 -28 49 -31 65 -8 43 -20 44 -27 1 -3 -21 -12
-46 -20 -57 -14 -19 -15 -19 -29 14 -13 31 -15 31 -20 11 -8 -31 -28 -21 -42
21 -8 22 -18 33 -30 32 -12 -1 -24 16 -41 53 -13 30 -28 54 -33 54 -5 0 -11
-14 -15 -31 -9 -46 -27 -31 -51 42 -14 40 -24 57 -26 45 -4 -18 -5 -18 -20 -3
-10 9 -25 42 -35 74 l-18 57 -12 -48 c-17 -66 -28 -75 -58 -47 -14 13 -32 37
-40 55 -15 30 -16 30 -22 8 -10 -34 -25 -22 -44 34 -9 27 -21 60 -27 74 l-10
25 -8 -25 c-4 -13 -14 -30 -21 -38 -8 -7 -14 -20 -14 -29 0 -25 -25 -8 -28 20
-2 15 -8 27 -13 27 -5 0 -18 15 -29 33 -19 31 -20 31 -26 10 -10 -37 -37 -25
-48 21 -5 22 -11 27 -27 23 -12 -3 -24 2 -33 14 -13 19 -14 19 -20 -6 -4 -15
-4 -36 0 -47 4 -15 3 -18 -6 -13 -13 8 -11 29 12 130 11 52 16 60 38 63 56 7
76 22 86 65 8 38 13 43 58 59 65 23 86 45 97 104 5 26 8 49 6 50 -2 2 -70 10
-153 19 -220 23 -204 16 -204 84 0 32 2 60 4 62 3 3 40 1 83 -3 89 -8 154 3
228 38 31 14 82 26 130 31 80 8 80 8 80 37 0 27 -5 31 -60 49 -32 11 -80 32
-105 47 -39 23 -45 30 -42 56 6 53 109 605 122 649 4 17 18 75 30 130 33 147
26 141 122 95 45 -22 90 -40 99 -40 17 0 59 49 59 67 0 4 -5 0 -11 -9 -9 -16
-49 -26 -49 -13 0 10 65 130 75 137 5 4 6 10 3 14 -11 10 -38 -22 -67 -82
l-26 -55 -38 36 c-20 19 -38 38 -40 42 -1 5 -7 7 -14 7 -6 -1 -9 5 -6 12 3 8
1 14 -3 14 -33 1 -34 18 -5 106 16 49 40 114 53 144 14 30 33 74 43 98 11 25
21 38 25 31 5 -7 13 -3 24 12 9 13 16 18 16 11 0 -6 5 -12 10 -12 6 0 10 7 10
15 0 14 -11 19 -37 16 -8 -1 -7 8 3 29 9 17 19 28 24 25 5 -3 11 -1 14 4 4 5
17 8 31 6 14 -1 25 2 25 6 0 5 -8 9 -17 9 -15 0 -14 4 6 19 15 11 22 24 18 34
-3 9 -1 18 6 21 9 3 9 5 0 5 -7 1 -13 5 -13 11 0 12 41 9 56 -5 21 -20 92
-131 95 -149 6 -31 29 -31 29 -1 0 18 6 29 18 32 11 2 30 23 43 44 13 22 30
47 37 54 6 7 12 16 12 19 0 3 34 53 75 110 41 57 75 107 75 110 0 3 -358 6
-795 6 l-795 0 0 -3186z m1185 2996 c3 -5 1 -10 -4 -10 -6 0 -11 5 -11 10 0 6
2 10 4 10 3 0 8 -4 11 -10z m2398 -1887 c-7 -2 -19 -2 -25 0 -7 3 -2 5 12 5
14 0 19 -2 13 -5z m2989 -510 c51 -41 98 -94 98 -109 0 -8 5 -14 10 -14 6 0
10 -4 10 -10 0 -14 -116 76 -138 108 -42 61 -36 70 20 25z m235 1 c13 -4 20
-10 17 -15 -3 -5 2 -16 10 -25 18 -17 21 -40 7 -49 -10 -6 -84 25 -89 38 -2 4
-10 7 -18 7 -19 0 -18 10 4 31 18 19 34 22 69 13z m-129 -26 c10 3 10 -1 0
-17 -12 -20 -12 -20 -35 1 -29 28 -30 42 0 26 12 -7 28 -11 35 -10z m-133 -50
c29 -19 47 -48 30 -48 -16 0 -57 27 -70 47 -19 29 -5 29 40 1z m-59 -16 c6 -4
13 -15 17 -25 6 -15 4 -16 -13 -7 -27 14 -43 12 -36 -5 6 -18 5 -18 -28 -5
-21 8 -24 7 -20 -8 5 -16 5 -16 -5 0 -6 9 -8 23 -5 32 5 13 18 18 69 24 6 1
15 -2 21 -6z m-6126 -22 c0 -6 9 -20 20 -32 22 -24 26 -43 9 -54 -7 -4 -8 -9
-1 -13 11 -7 32 -223 32 -335 0 -86 -11 -103 -54 -81 -16 8 -35 15 -43 15 -26
0 -60 47 -61 86 -1 21 -7 52 -13 71 -6 19 -8 41 -4 51 3 9 8 44 11 77 3 33 8
62 10 64 2 2 14 -4 25 -15 l22 -19 -7 35 c-12 54 -10 124 3 128 6 2 11 10 11
18 0 8 9 14 20 14 11 0 20 -5 20 -10z m3229 -53 c0 -21 -1 -21 -9 -2 -12 28
-12 37 0 30 6 -3 10 -16 9 -28z m2771 29 c0 -11 -19 -15 -25 -6 -3 5 1 10 9
10 9 0 16 -2 16 -4z m-135 -74 c14 -21 33 -48 42 -61 17 -23 17 -24 -4 -11
-19 12 -83 101 -83 115 0 13 22 -8 45 -43z m-3031 -78 c3 -8 2 -12 -4 -9 -6 3
-10 10 -10 16 0 14 7 11 14 -7z m-66 -89 c-3 -3 -9 2 -12 12 -6 14 -5 15 5 6
7 -7 10 -15 7 -18z m84 -21 c5 -4 -19 -64 -25 -64 -2 0 0 62 2 68 2 4 18 2 23
-4z m-43 -66 c9 -24 23 -77 30 -118 8 -41 17 -80 23 -86 13 -17 20 -60 7 -47
-8 8 -89 271 -89 289 0 16 13 -3 29 -38z m-2320 -186 c22 -54 21 -75 -6 -70
-18 4 -42 84 -42 143 l-1 40 14 -30 c8 -16 23 -54 35 -83z m-656 -18 c3 -4 -5
-22 -20 -40 -20 -26 -24 -41 -19 -65 4 -22 2 -29 -7 -26 -6 2 -12 10 -13 18
-1 8 -5 33 -9 57 -6 33 -12 42 -29 43 -15 1 -13 3 9 9 39 10 80 12 88 4z m196
-10 c12 -11 21 -148 26 -404 3 -157 8 -305 11 -330 5 -40 7 -43 19 -26 8 10
23 16 37 14 28 -4 31 -32 3 -34 -11 -1 -27 -2 -36 -3 -13 -1 -17 -20 -23 -108
-3 -59 -10 -111 -15 -116 -5 -5 -48 -11 -94 -13 l-85 -4 9 41 c6 24 7 134 4
253 -9 331 -13 404 -25 425 -7 13 -7 22 0 26 13 8 13 52 0 60 -13 8 -11 142 2
168 5 10 5 25 -2 36 -7 14 -6 21 3 24 13 5 159 -3 166 -9z m466 -131 c-11
-111 -24 -206 -33 -238 -7 -24 -14 -30 -37 -30 l-28 0 3 100 c1 55 4 120 6
145 1 25 3 55 3 68 1 19 6 22 47 22 l46 0 -7 -67z m-105 47 c0 -5 -4 -10 -10
-10 -5 0 -10 5 -10 10 0 6 5 10 10 10 6 0 10 -4 10 -10z m259 -55 c0 -5 -6 -1
-14 9 -8 11 -15 24 -15 30 0 5 7 1 15 -10 8 -10 14 -23 14 -29z m228 -12 c3
-13 9 -23 14 -23 5 0 9 -4 9 -10 0 -5 -3 -10 -8 -10 -8 0 -52 80 -52 95 1 15
30 -27 37 -52z m-1071 -70 c7 -67 -2 -141 -16 -127 -7 7 -14 129 -11 194 2 36
21 -11 27 -67z m1019 5 c-8 -75 -13 -115 -14 -133 -1 -6 -5 -5 -9 2 -4 6 -20
13 -36 15 -29 3 -37 11 -57 58 -5 14 -17 38 -25 53 -9 15 -14 33 -12 39 3 7
19 -18 37 -55 35 -72 41 -79 58 -69 11 7 36 74 48 130 12 57 18 34 10 -40z
m589 -148 c8 -19 15 -44 15 -55 0 -11 2 -110 3 -220 l3 -200 28 -3 c15 -2 27
-9 27 -17 0 -18 -37 -30 -53 -17 -19 15 -74 12 -88 -4 -9 -11 -10 -70 -5 -242
7 -243 12 -295 28 -286 6 4 14 0 19 -7 12 -19 11 -96 -1 -104 -6 -4 -25 8 -43
27 -37 39 -49 56 -79 120 -13 26 -26 48 -29 48 -8 0 -29 -47 -29 -65 0 -31
-19 -13 -25 23 -14 86 -45 108 -45 31 0 -41 -7 -48 -28 -27 -10 10 -14 8 -18
-10 -8 -29 -18 -28 -32 4 -7 14 -16 23 -20 20 -13 -8 -6 205 9 254 7 25 13 55
14 67 1 27 15 43 15 18 0 -18 1 -18 16 -3 13 12 17 36 17 96 0 43 -5 86 -10
95 -5 10 -6 45 -2 79 6 70 3 88 -16 88 -11 0 -9 15 6 72 11 39 18 77 15 85 -3
8 1 16 9 19 17 7 21 34 5 34 -5 0 -9 18 -7 40 1 22 7 40 13 40 6 0 17 7 24 15
7 8 23 15 36 15 13 0 24 5 24 10 0 12 47 14 53 3 8 -14 -31 -116 -47 -125 -20
-11 -20 -56 2 -212 16 -115 33 -152 46 -104 3 13 6 40 6 61 0 23 5 40 14 43
14 5 19 21 31 91 3 18 9 43 14 56 6 14 7 27 5 30 -13 12 18 45 47 51 29 5 31
8 16 19 -11 8 -22 44 -32 107 -22 140 -18 170 10 65 13 -49 31 -105 39 -125z
m-1037 158 c-3 -7 -5 -2 -5 12 0 14 2 19 5 13 2 -7 2 -19 0 -25z m409 -330 c0
-82 -3 -148 -6 -148 -4 0 -8 21 -9 46 -1 49 -6 64 -22 64 -5 0 -9 -34 -9 -75
l0 -75 -40 0 c-23 0 -43 5 -45 13 -3 6 -6 78 -8 159 l-2 147 27 5 c15 3 35 3
43 0 11 -4 19 3 26 25 l11 32 17 -23 c13 -19 16 -51 17 -170z m61 100 c-3 -8
-6 -5 -6 6 -1 11 2 17 5 13 3 -3 4 -12 1 -19z m2851 -31 c62 -37 129 -125 117
-154 -7 -17 -8 -17 -15 2 -8 21 -15 12 -22 -29 -2 -12 -39 -45 -89 -79 -102
-70 -109 -70 -189 4 -44 41 -51 52 -40 60 11 8 9 9 -9 4 -16 -5 -21 -4 -17 4
13 21 38 11 88 -34 38 -34 58 -45 83 -45 60 0 177 106 168 153 -8 41 -123 137
-164 137 -11 0 -19 5 -19 11 0 17 48 2 108 -34z m-2851 -59 c-2 -13 -4 -5 -4
17 -1 22 1 32 4 23 2 -10 2 -28 0 -40z m2651 17 c-6 -14 -23 -32 -37 -41 -14
-9 -24 -14 -21 -11 3 3 19 22 35 42 35 42 38 43 23 10z m37 -115 c33 -33 55
-60 50 -60 -11 0 -125 105 -125 114 0 16 21 1 75 -54z m-3084 -20 c2 -28 -3
-55 -13 -67 -5 -7 -7 -17 -3 -23 3 -5 1 -10 -4 -10 -22 0 -71 -94 -71 -136 0
-22 -6 -49 -14 -60 -14 -18 -15 -18 -25 9 -6 16 -11 34 -11 40 0 18 -49 110
-63 119 -9 5 -9 10 -1 18 8 8 16 7 28 -5 15 -15 16 -15 17 2 1 10 1 24 0 31
-1 6 3 12 9 12 5 0 10 -7 10 -16 0 -10 7 -14 23 -12 17 2 23 11 25 37 2 18 -1
38 -7 44 -23 23 -10 33 44 32 42 0 55 -4 56 -15z m55 -36 c4 -15 2 -30 -6 -37
-10 -9 -11 -7 -5 11 4 13 2 29 -5 37 -9 10 -9 15 -1 15 6 0 14 -12 17 -26z
m2867 -26 c-1 -24 -4 -55 -7 -71 -3 -18 0 -27 8 -25 14 4 116 -60 116 -73 0
-4 -8 -5 -17 -2 -12 5 -11 1 5 -15 12 -12 27 -22 32 -22 13 0 13 -41 0 -75
-16 -42 -70 -103 -96 -108 -33 -6 -39 8 -9 21 26 12 70 75 80 115 8 29 -23 58
-155 147 -49 33 -93 66 -97 75 -7 12 -12 12 -35 -3 -14 -9 -44 -41 -67 -70
-23 -29 -46 -50 -52 -47 -5 4 -18 -13 -29 -37 -16 -36 -20 -39 -20 -18 0 55
126 210 171 210 28 0 95 -36 102 -55 4 -8 13 -15 21 -15 8 0 16 -6 18 -12 3
-7 7 -3 10 9 3 12 -1 34 -9 50 -13 26 -13 29 7 45 12 10 23 18 24 18 0 0 0
-19 -1 -42z m-3076 10 c-3 -8 -6 -5 -6 6 -1 11 2 17 5 13 3 -3 4 -12 1 -19z
m-443 -71 c13 -28 16 -47 10 -75 -4 -22 -9 -30 -11 -19 -3 9 -8 17 -12 17 -5
0 -11 19 -14 43 -2 23 -8 50 -12 61 -15 36 19 12 39 -27z m616 22 c0 -6 -4 -7
-10 -4 -5 3 -10 11 -10 16 0 6 5 7 10 4 6 -3 10 -11 10 -16z m3940 -43 c0 -2
-8 -10 -17 -17 -16 -13 -17 -12 -4 4 13 16 21 21 21 13z m-3851 -47 c7 -16 10
-36 7 -44 -3 -10 1 -15 13 -15 16 0 17 -7 14 -64 -5 -63 -5 -64 27 -79 17 -9
38 -13 46 -10 8 3 14 -1 14 -11 0 -9 -8 -16 -20 -16 -11 0 -20 -7 -20 -15 0
-9 -11 -27 -25 -41 -23 -23 -26 -24 -31 -7 -3 10 -13 33 -21 51 -9 21 -12 44
-8 64 7 28 5 30 -14 25 -18 -4 -22 0 -27 35 -4 22 -13 42 -20 45 -20 7 -17 27
6 48 21 19 18 37 -5 28 -10 -3 -15 1 -15 12 0 12 5 15 21 10 12 -4 19 -3 16 2
-3 5 2 9 12 10 10 1 22 -11 30 -28z m2556 -153 c27 -25 51 -44 54 -44 3 1 13
-1 21 -5 8 -3 22 -8 30 -10 8 -3 4 -6 -10 -6 -26 -1 -80 31 -138 81 -18 15
-27 28 -19 28 7 0 35 -20 62 -44z m85 -1 c6 -8 10 -18 8 -23 -5 -15 -48 6 -48
23 0 19 24 20 40 0z m-1660 -77 c0 -5 -9 -3 -20 4 -11 7 -20 16 -20 20 0 5 9
3 20 -4 11 -7 20 -16 20 -20z m1734 13 c4 -5 -3 -7 -14 -4 -23 6 -26 13 -6 13
8 0 17 -4 20 -9z m-2564 -51 c0 -27 -4 -50 -10 -50 -5 0 -8 10 -6 23 3 12 5
34 5 50 2 48 11 29 11 -23z m-22 -5 c-1 -13 -6 -21 -10 -17 -5 5 -6 16 -2 25
9 24 14 21 12 -8z m-732 -32 c55 -62 69 -118 73 -284 1 -56 5 -70 27 -94 21
-23 25 -34 19 -61 -3 -21 -2 -34 5 -34 5 0 10 -7 10 -16 0 -8 5 -25 12 -37 15
-27 19 -48 13 -66 -4 -9 -16 -1 -40 25 l-35 38 0 -132 c0 -99 -4 -142 -16
-170 -15 -35 -16 -36 -25 -14 -12 30 -27 28 -31 -5 -3 -25 -8 -28 -44 -31 -48
-3 -55 3 -78 76 -11 35 -14 58 -7 69 6 11 5 27 -1 42 -10 27 -19 169 -17 281
2 133 -6 299 -16 308 -3 3 -5 20 -5 39 0 38 -19 49 -97 60 -76 10 -33 22 92
26 66 1 124 4 128 5 4 1 19 -10 33 -25z m777 -62 c-4 -26 -9 -39 -15 -33 -6 6
-6 30 -2 57 4 32 9 43 15 33 4 -7 5 -33 2 -57z m24 37 c-3 -8 -6 -5 -6 6 -1
11 2 17 5 13 3 -3 4 -12 1 -19z m-153 -22 c-6 -16 -24 -23 -24 -8 0 10 22 33
27 28 2 -2 1 -11 -3 -20z m1016 -33 c6 -27 27 -84 46 -127 19 -44 34 -85 34
-93 0 -7 4 -13 9 -13 5 0 12 -14 16 -30 4 -17 11 -27 16 -24 6 3 10 0 8 -7 -4
-32 2 -49 17 -49 8 0 13 -4 9 -9 -3 -5 8 -31 25 -57 16 -26 30 -52 30 -56 0
-5 11 -25 24 -46 12 -20 27 -48 31 -62 4 -14 13 -32 20 -40 8 -8 14 -19 16
-25 2 -13 52 -118 59 -125 3 -3 6 -17 7 -32 1 -15 8 -42 16 -60 8 -18 20 -55
27 -83 31 -128 45 -142 93 -95 l31 30 13 -25 c21 -39 -4 -79 -101 -160 -27
-22 -53 -43 -59 -47 -6 -4 -9 -9 -6 -12 8 -8 69 23 69 35 0 5 7 9 15 9 8 0 28
14 45 30 17 17 35 28 41 25 5 -4 9 1 9 9 0 16 40 23 54 9 3 -4 -14 -27 -39
-53 l-45 -45 21 -54 c16 -43 18 -60 9 -84 -22 -63 -174 -176 -327 -243 -81
-35 -95 -38 -178 -38 -108 1 -150 19 -221 94 -88 93 -126 227 -91 322 8 24 18
59 21 78 4 19 17 50 31 70 13 19 36 74 51 122 27 86 27 89 14 187 -22 166 1
344 71 552 32 95 39 131 39 193 0 42 4 76 9 76 5 0 14 -21 21 -47z m-825 -24
c-10 -15 -25 -10 -19 6 4 8 10 12 15 9 5 -3 7 -10 4 -15z m6688 -79 c8 0 7 -4
-1 -12 -9 -9 -16 -8 -30 6 -16 18 -16 19 1 12 10 -3 24 -6 30 -6z m37 -40 c0
-5 -2 -10 -4 -10 -3 0 -8 5 -11 10 -3 6 -1 10 4 10 6 0 11 -4 11 -10z m-6022
-54 c2 -10 1 -33 -2 -52 -7 -33 -7 -33 -26 -14 -19 19 -27 69 -14 82 11 12 39
1 42 -16z m-1249 -293 c26 -25 28 -52 7 -91 -14 -27 -20 -31 -32 -21 -8 6 -14
20 -14 30 0 20 16 35 22 19 2 -5 9 -6 17 -1 11 7 10 13 -5 35 -11 14 -25 26
-31 26 -7 0 -13 5 -13 10 0 16 29 12 49 -7z m-51 -59 c0 -14 -4 -21 -7 -15 -4
6 -18 10 -31 9 -30 -4 -38 19 -8 25 43 8 46 7 46 -19z m6942 -289 c0 -8 -4
-15 -10 -15 -5 0 -7 7 -4 15 4 8 8 15 10 15 2 0 4 -7 4 -15z m-7123 -62 c12
-29 17 -103 24 -328 4 -159 11 -322 14 -361 10 -113 -33 -185 -91 -154 -12 7
-36 10 -53 7 -19 -4 -33 -1 -41 8 -16 19 -29 19 -51 -1 -17 -15 -18 -13 -24
23 -3 21 -10 48 -15 60 -5 12 -5 34 -1 50 4 15 6 33 4 40 -2 6 1 14 6 18 18
10 14 85 -4 85 -11 0 -14 7 -11 23 4 19 10 59 21 149 5 37 17 199 17 223 0 11
-3 43 -7 71 -7 46 -11 53 -41 64 -19 8 -34 17 -34 21 0 4 24 10 53 13 28 4 81
10 117 15 103 14 100 14 117 -26z m5683 6 c0 -12 -7 -19 -20 -19 -23 0 -26 14
-7 34 15 17 27 11 27 -15z m-5286 -343 c36 -43 48 -67 24 -46 -7 6 -29 21 -48
33 -19 12 -36 30 -38 40 -6 31 26 18 62 -27z m26 -93 c0 -5 68 -42 150 -83
127 -63 150 -78 150 -97 0 -13 -6 -23 -14 -23 -17 0 -83 37 -110 62 -11 10
-24 18 -28 18 -13 0 -164 98 -178 115 -10 12 -9 15 9 15 11 0 21 -3 21 -7z
m5595 -32 c3 -5 1 -12 -5 -16 -5 -3 -10 1 -10 9 0 18 6 21 15 7z m465 -21 c-6
-11 -15 -20 -20 -20 -16 0 -11 18 8 29 24 14 24 14 12 -9z m-440 -61 c0 -5 -7
-9 -15 -9 -8 0 -15 7 -15 15 0 9 6 12 15 9 8 -4 15 -10 15 -15z m440 -6 c0 -5
-5 -15 -10 -23 -8 -13 -10 -12 -10 3 0 9 -4 17 -10 17 -5 0 -10 -4 -10 -10 0
-5 -5 -10 -11 -10 -8 0 -8 5 1 15 13 15 50 21 50 8z m-446 -39 c9 -3 16 -13
16 -21 0 -10 -6 -13 -16 -9 -9 3 -18 6 -20 6 -2 0 -4 7 -4 15 0 17 2 18 24 9z
m426 -50 c0 -8 -4 -12 -10 -9 -5 3 -10 10 -10 16 0 5 5 9 10 9 6 0 10 -7 10
-16z m-4312 -22 c6 -18 -15 -14 -22 4 -4 10 -1 14 6 12 6 -2 14 -10 16 -16z
m3913 -19 c7 -21 6 -21 -16 -11 -14 6 -25 18 -25 25 0 22 32 11 41 -14z m94 3
c0 -19 -3 -21 -17 -12 -21 13 -23 22 -5 29 21 9 22 8 22 -17z m-5394 4 c23
-13 25 -36 3 -44 -13 -5 -15 -15 -11 -41 3 -20 1 -35 -5 -37 -8 -3 -7 -11 1
-27 9 -17 10 -26 2 -34 -18 -18 -13 -45 10 -57 11 -7 18 -14 15 -17 -3 -4 2
-15 11 -25 10 -12 17 -36 17 -67 1 -43 -1 -47 -16 -38 -9 6 -19 19 -21 29 -3
10 -10 18 -17 18 -6 0 -8 -4 -5 -10 3 -5 2 -10 -4 -10 -12 0 -34 37 -39 65 -4
27 -4 68 0 143 4 65 -8 89 -55 105 -32 12 1 45 48 50 22 2 41 4 43 5 2 1 12
-3 23 -8z m2965 -35 c8 -44 1 -52 -31 -37 -19 9 -25 19 -25 42 0 25 4 30 25
30 20 0 25 -6 31 -35z m-155 -22 c11 -25 24 -66 30 -91 13 -58 1 -72 -38 -46
-27 18 -32 20 -53 23 -5 0 -10 5 -10 9 0 5 14 7 30 4 37 -5 38 6 10 80 -24 64
-24 68 -5 68 9 0 24 -20 36 -47z m2877 15 c-6 -18 -28 -21 -28 -4 0 9 7 16 16
16 9 0 14 -5 12 -12z m-383 -19 c4 -11 4 -23 1 -26 -3 -4 -6 -1 -6 5 0 7 -7
12 -15 12 -8 0 -15 7 -15 15 0 23 28 18 35 -6z m116 -17 c-13 -24 -40 -46 -47
-39 -9 9 5 27 21 27 7 0 15 7 19 15 3 8 8 15 11 15 3 0 1 -8 -4 -18z m253 -69
c-3 -43 -6 -121 -7 -174 -2 -80 -6 -99 -24 -122 -26 -34 -33 -34 -33 -2 0 14
-4 25 -10 25 -5 0 -10 -10 -10 -23 0 -14 -17 -39 -45 -66 -59 -56 -69 -75 -50
-94 8 -8 11 -17 8 -21 -13 -13 -29 -5 -45 22 -18 30 -10 52 19 52 7 0 17 10
24 21 6 12 26 35 45 51 19 17 34 36 34 42 0 7 17 31 38 54 44 47 42 76 -2 52
-39 -20 -39 -9 -1 33 31 34 32 63 0 37 -10 -8 -15 -8 -21 1 -5 8 6 24 28 43
31 27 34 34 25 54 -8 18 -7 26 3 32 11 7 11 12 2 22 -9 11 -9 17 0 26 23 23
27 11 22 -65z m-4851 60 c-7 -2 -21 -2 -30 0 -10 3 -4 5 12 5 17 0 24 -2 18
-5z m2389 -117 c5 -65 -18 -54 -26 12 -8 70 4 118 15 62 4 -19 9 -53 11 -74z
m105 37 c9 -7 19 -10 23 -8 4 2 5 -7 2 -22 -4 -23 -6 -24 -15 -7 -5 11 -23 31
-40 45 -22 19 -28 31 -23 45 6 16 9 14 22 -12 8 -16 22 -34 31 -41z m1989 52
c10 -26 0 -37 -20 -22 -11 8 -16 19 -12 25 10 16 26 15 32 -3z m-2161 -15
c-10 -11 -26 -22 -36 -25 -17 -6 -19 -17 -19 -96 0 -49 -4 -89 -9 -89 -10 0
-27 198 -18 207 6 6 62 20 86 22 11 1 10 -4 -4 -19z m2173 -92 c3 -30 0 -37
-12 -32 -8 3 -14 13 -14 22 0 9 -3 25 -7 36 -6 14 -4 17 11 14 14 -2 20 -13
22 -40z m66 -24 c4 -10 1 -14 -6 -12 -15 5 -23 28 -10 28 5 0 13 -7 16 -16z
m51 -44 c-22 -22 -46 -40 -55 -39 -10 0 -5 8 14 22 16 12 38 32 49 44 11 13
23 21 26 18 2 -3 -13 -23 -34 -45z m-115 5 c0 -8 -7 -15 -15 -15 -16 0 -20 12
-8 23 11 12 23 8 23 -8z m-2023 -37 c-3 -7 -5 -2 -5 12 0 14 2 19 5 13 2 -7 2
-19 0 -25z m2768 -7 c-3 -6 -11 -11 -16 -11 -5 0 -4 6 3 14 14 16 24 13 13 -3z
m-739 -16 c2 -11 6 -55 10 -98 6 -76 5 -78 -14 -68 -31 17 -46 85 -20 93 8 3
7 10 -4 26 -19 27 -12 74 10 70 8 -2 16 -12 18 -23z m699 5 c6 -10 -45 -40
-70 -40 -8 0 -15 5 -15 10 0 6 7 10 15 10 9 0 18 7 21 15 7 17 40 20 49 5z
m-618 -25 c8 -9 13 -19 10 -22 -6 -5 -37 21 -37 31 0 10 11 6 27 -9z m-2424
-50 c-7 -21 -13 -19 -13 6 0 11 4 18 10 14 5 -3 7 -12 3 -20z m2461 -54 c15
-16 17 -24 8 -33 -9 -9 -18 -5 -37 16 -30 32 -35 62 -7 47 9 -5 26 -19 36 -30z
m-5446 -1 c7 -11 18 -20 26 -20 13 0 56 -33 56 -43 0 -3 -14 0 -32 6 -36 14
-78 49 -78 66 0 17 14 13 28 -9z m5502 10 c0 -5 -4 -10 -9 -10 -6 0 -13 5 -16
10 -3 6 1 10 9 10 9 0 16 -4 16 -10z m-4907 -7 c3 -5 -8 -9 -24 -10 -17 -1
-27 2 -24 7 7 12 42 13 48 3z m5088 -24 c8 -30 -15 -57 -43 -51 -20 4 -22 19
-8 57 13 33 41 30 51 -6z m-5015 7 c3 -8 18 -18 34 -21 32 -7 65 -39 55 -54
-8 -13 -42 -14 -49 -2 -3 4 -19 11 -35 14 -23 5 -30 12 -33 37 -3 16 -2 32 0
35 10 9 23 5 28 -9z m-79 -12 c-3 -3 -12 -4 -19 -1 -8 3 -5 6 6 6 11 1 17 -2
13 -5z m-37 -24 c0 -16 -50 -24 -63 -10 -9 10 -9 11 0 6 7 -4 21 -2 30 3 23
13 33 14 33 1z m4880 -25 c0 -8 -2 -15 -4 -15 -2 0 -6 7 -10 15 -3 8 -1 15 4
15 6 0 10 -7 10 -15z m-4804 -12 c-3 -6 4 -15 15 -18 32 -10 22 -33 -20 -46
-32 -10 -44 -9 -72 5 -31 16 -35 16 -59 -2 -26 -19 -64 -18 -57 1 2 7 12 14
21 15 10 2 26 12 37 23 10 10 31 19 47 19 15 0 32 4 39 8 20 12 54 9 49 -5z
m5591 -45 c-3 -8 -6 -5 -6 6 -1 11 2 17 5 13 3 -3 4 -12 1 -19z m-4707 -60 c0
-17 -43 -149 -53 -165 -12 -19 -181 -18 -196 1 -13 16 -27 137 -18 160 5 13
27 16 137 16 97 0 130 -3 130 -12z m2154 -26 c38 -61 77 -142 72 -151 -3 -4
-83 -9 -178 -10 -95 -1 -174 -4 -176 -5 -1 -2 2 -15 7 -30 15 -37 5 -32 -13 7
-14 32 -19 57 -32 170 l-7 57 151 0 152 0 24 -38z m2293 -88 c20 -18 24 -27
15 -33 -10 -6 -4 -15 18 -32 18 -13 45 -34 60 -46 15 -13 34 -23 42 -23 7 0
19 -9 26 -20 7 -11 17 -20 23 -20 5 0 22 -11 37 -25 15 -14 23 -25 19 -25 -16
0 -93 44 -127 71 -19 16 -43 29 -53 29 -10 0 -15 4 -12 10 7 11 -39 24 -60 17
-8 -4 -17 -2 -20 3 -4 6 -1 10 5 10 6 0 3 11 -6 26 -10 14 -23 23 -31 20 -9
-4 -11 -1 -7 5 4 6 0 15 -7 20 -22 14 -4 20 27 9 25 -9 27 -8 12 4 -10 7 -18
16 -18 20 0 15 31 4 57 -20z m-100 -125 c-8 -5 -22 -6 -31 -3 -27 11 -17 21
15 16 24 -4 28 -7 16 -13z m37 -24 c11 -8 18 -17 15 -19 -2 -3 -15 4 -29 14
-14 11 -20 20 -15 19 6 0 19 -6 29 -14z m-4545 -68 c52 -48 52 -49 40 -85 -23
-73 -25 -74 -64 -51 -19 12 -45 35 -57 51 l-21 30 24 -7 c13 -3 19 -3 13 2
-28 21 -34 51 -16 82 9 17 20 30 24 28 3 -1 29 -24 57 -50z m4594 37 c-4 -12
0 -14 19 -9 18 5 32 -1 56 -24 17 -17 36 -31 41 -31 5 0 15 -8 22 -17 12 -15
12 -16 -4 -10 -11 4 -16 3 -12 -3 3 -6 1 -10 -6 -10 -7 0 -10 -2 -7 -5 3 -3
18 -1 34 5 25 9 27 8 12 -4 -10 -7 -18 -21 -18 -32 0 -17 1 -17 14 1 13 18 14
18 21 -4 4 -12 9 -20 12 -17 6 6 53 -79 53 -96 0 -6 12 -22 28 -35 30 -27 26
-27 -31 2 -37 19 -37 19 -57 -3 -20 -21 -22 -21 -58 -6 -20 9 -50 19 -67 22
-16 3 -32 9 -36 13 -3 5 -23 18 -45 29 -27 13 -33 19 -19 20 36 1 75 46 84 96
9 45 7 49 -21 77 -24 25 -32 57 -14 57 3 0 3 -7 -1 -16z m-634 -13 c0 -3 -5
-15 -10 -26 -9 -19 -9 -18 -5 3 2 12 0 22 -5 22 -5 0 -9 4 -9 10 0 5 7 7 15 4
8 -4 15 -9 14 -13z m-4442 -23 c-3 -8 -6 -5 -6 6 -1 11 2 17 5 13 3 -3 4 -12
1 -19z m144 -98 c85 0 85 0 -1 -185 -15 -33 -33 -77 -40 -97 -8 -27 -17 -38
-31 -38 -25 0 -24 -17 1 -25 11 -3 25 -15 30 -25 8 -16 6 -22 -10 -32 -28 -18
-25 -36 6 -40 42 -5 53 -32 25 -62 -39 -41 -57 -20 -80 94 -6 30 -17 87 -26
127 -15 72 -20 225 -9 280 6 30 6 30 42 17 21 -7 62 -13 93 -14z m4294 -52
c-8 -84 -15 -86 -15 -5 0 39 4 67 10 67 7 0 8 -23 5 -62z m-1013 -11 c26 -35
52 -75 57 -90 13 -35 14 -182 1 -152 -5 11 -9 14 -9 7 -1 -8 -7 -12 -13 -9 -7
2 -12 10 -10 16 1 8 -4 7 -18 -1 -11 -7 -20 -23 -20 -36 0 -13 -4 -20 -10 -17
-6 4 -10 -5 -10 -19 0 -16 -6 -26 -15 -26 -8 0 -15 -6 -15 -13 0 -8 -11 -26
-24 -42 -17 -20 -25 -24 -29 -14 -5 11 -8 11 -16 -2 -6 -9 -35 -42 -66 -74
-30 -32 -55 -61 -55 -64 0 -4 -10 -7 -22 -8 -11 -1 -24 -6 -27 -11 -9 -12 -41
-23 -41 -13 0 4 10 16 21 27 45 40 80 103 77 137 l-3 32 -19 -38 c-11 -22 -40
-61 -66 -87 -38 -39 -53 -48 -76 -45 -16 1 -38 -2 -49 -7 -11 -6 -2 9 21 33
97 104 133 150 134 172 0 5 -17 -5 -39 -22 -21 -17 -41 -28 -45 -24 -3 3 -6 1
-6 -5 0 -13 -118 -132 -132 -132 -5 0 -6 5 -2 11 4 8 0 9 -15 4 -25 -8 -26 -2
-5 30 10 15 12 25 5 25 -6 0 -11 -7 -11 -15 0 -34 -32 -13 -52 35 l-20 50 -20
-25 c-11 -14 -24 -23 -29 -20 -17 11 -9 111 17 200 31 109 63 171 115 221 l39
38 22 -26 c38 -42 67 -52 153 -52 70 0 88 4 145 32 36 17 79 43 95 56 17 14
32 25 35 25 3 0 26 -28 52 -62z m1332 -15 c8 -13 -5 -82 -15 -82 -5 0 -8 20
-7 45 0 42 10 57 22 37z m-653 -110 c-17 -55 -31 -111 -31 -124 0 -13 -5 -29
-10 -34 -6 -6 -14 -30 -19 -55 -7 -36 -9 -38 -10 -14 0 17 4 48 10 70 6 22 12
49 14 60 12 88 30 159 47 180 11 15 22 24 25 21 3 -2 -9 -50 -26 -104z m278
-75 c-4 -78 -7 -220 -8 -315 -1 -165 -13 -262 -32 -262 -6 0 -7 57 -4 133 10
278 27 583 32 607 l6 25 6 -23 c3 -12 3 -87 0 -165z m308 128 c36 -33 40 -60
5 -39 -17 11 -58 74 -48 74 2 0 22 -16 43 -35z m-1170 -277 c-3 -7 -5 -2 -5
12 0 14 2 19 5 13 2 -7 2 -19 0 -25z m-4305 -40 c5 -66 2 -88 -13 -88 -5 0 -9
34 -9 75 0 91 16 100 22 13z m4246 -11 c15 -12 15 -57 -1 -78 -7 -9 -22 -21
-34 -27 -12 -7 -23 -22 -25 -33 -2 -12 -13 -28 -25 -36 -21 -14 -23 -13 -34
11 -7 14 -15 26 -19 26 -3 0 -23 -16 -45 -35 -41 -38 -58 -40 -63 -9 -2 13 13
36 39 62 41 40 44 41 62 25 10 -10 34 -18 53 -19 33 -1 35 1 30 25 -3 14 -3
20 0 14 8 -19 24 -16 24 5 0 14 2 15 10 2 8 -13 10 -12 10 4 0 11 -9 30 -21
42 -35 37 -4 54 39 21z m2163 -33 c19 -9 29 -21 27 -32 -6 -30 -32 -23 -49 13
-19 40 -18 40 22 19z m-5481 -56 c0 -9 4 -8 11 2 8 12 10 12 7 1 -2 -8 -16
-15 -30 -15 -17 -1 -24 3 -21 11 7 17 33 17 33 1z m148 -54 c28 -29 10 -32
-21 -4 -12 11 -27 18 -34 16 -7 -3 -13 2 -13 10 0 21 38 9 68 -22z m-1170
-106 c4 -31 -34 -63 -62 -52 -19 7 -14 35 12 65 23 26 46 20 50 -13z m425 14
c14 -12 14 -15 -5 -34 -16 -16 -17 -22 -8 -28 7 -5 19 -6 27 -3 20 8 55 -75
42 -100 -8 -14 -17 -17 -42 -11 -44 9 -47 12 -47 40 0 14 -6 35 -14 47 -8 12
-17 38 -21 57 -4 19 -11 38 -16 41 -5 3 8 5 29 5 22 -1 46 -7 55 -14z m737
-30 c0 -19 -18 -42 -33 -42 -4 0 -5 6 0 13 8 12 9 17 12 37 2 18 21 11 21 -8z
m-1226 -199 c13 -251 48 -458 111 -668 70 -233 85 -303 85 -410 0 -83 -5 -114
-28 -179 -31 -91 -52 -111 -45 -43 8 67 -14 156 -40 167 -12 5 -17 9 -10 9 15
1 4 41 -12 41 -7 0 -16 11 -19 25 -4 14 -11 23 -16 20 -6 -3 -10 0 -10 7 0 8
-9 31 -20 53 -11 22 -20 46 -20 54 0 33 -25 81 -42 81 -10 0 -18 3 -18 8 1 16
40 53 50 47 19 -11 10 7 -13 29 -17 15 -23 34 -26 71 -1 27 -9 61 -16 76 -8
14 -13 47 -11 72 1 25 -1 44 -6 41 -11 -7 -10 -1 8 36 11 22 13 34 6 39 -6 3
-15 18 -21 33 -12 33 -16 268 -6 360 7 61 11 72 49 113 23 25 47 45 53 45 6 0
13 -51 17 -127z m1176 10 c0 -113 7 -146 26 -139 8 3 14 -1 14 -8 0 -8 -7 -16
-15 -20 -17 -6 -19 -48 -5 -109 5 -23 12 -69 15 -101 5 -42 10 -55 16 -45 7
10 8 6 4 -12 -12 -49 120 -587 142 -582 5 1 9 -43 7 -101 -2 -103 -17 -154
-67 -220 -13 -18 -15 -16 -21 26 -4 26 -14 52 -21 58 -8 7 -15 25 -15 40 0 15
-6 33 -14 39 -7 6 -14 30 -14 52 -1 22 -6 47 -13 55 -6 8 -8 14 -4 14 4 0 3 6
-2 13 -5 6 -15 31 -21 55 -7 23 -17 59 -23 80 -5 20 -12 57 -14 82 -3 25 -9
68 -14 95 -46 234 -61 464 -41 646 11 103 17 126 38 150 13 16 28 29 33 29 5
0 9 -44 9 -97z m-585 -41 c-3 -7 -9 -11 -14 -8 -17 11 -22 58 -9 87 l13 30 7
-48 c4 -26 5 -54 3 -61z m3332 -48 c15 -41 18 -81 18 -234 0 -179 -4 -214 -42
-400 -30 -148 -70 -279 -88 -295 -6 -5 -15 -32 -18 -59 -4 -28 -11 -52 -16
-55 -4 -4 -14 -37 -21 -74 -15 -80 -26 -77 -40 10 -12 75 -2 158 45 368 69
304 104 519 120 729 8 95 11 96 42 10z m-4687 -40 c0 -8 -4 -12 -10 -9 -5 3
-10 10 -10 16 0 5 5 9 10 9 6 0 10 -7 10 -16z m2024 -29 c-4 -8 -11 -15 -16
-15 -6 0 -5 6 2 15 7 8 14 15 16 15 2 0 1 -7 -2 -15z m156 -361 c6 -14 10 -37
10 -50 0 -20 4 -25 23 -22 17 2 21 -1 19 -16 -3 -14 1 -17 15 -12 16 6 17 6 2
-9 -15 -15 -19 -15 -57 0 -56 23 -90 93 -60 123 19 19 38 14 48 -14z m-100
-75 c0 -4 -7 -6 -15 -3 -8 4 -15 10 -15 15 0 4 7 6 15 3 8 -4 15 -10 15 -15z
m20 -29 c0 -5 -2 -10 -4 -10 -3 0 -8 5 -11 10 -3 6 -1 10 4 10 6 0 11 -4 11
-10z m105 -99 c3 -6 -3 -15 -14 -21 -24 -12 -42 7 -20 21 18 11 26 11 34 0z
m862 -33 c-3 -8 -6 -5 -6 6 -1 11 2 17 5 13 3 -3 4 -12 1 -19z m1262 -111 c1
-5 -3 -5 -9 -2 -5 3 -10 16 -9 28 0 21 1 21 9 2 5 -11 9 -24 9 -28z m-1292
-29 c-2 -13 -4 -5 -4 17 -1 22 1 32 4 23 2 -10 2 -28 0 -40z m399 -228 c-19
-44 -22 -10 -4 41 10 27 13 30 16 14 1 -12 -4 -36 -12 -55z m-517 -321 c1 -24
-4 -39 -13 -42 -20 -8 -24 25 -11 88 9 46 10 48 16 20 4 -17 7 -46 8 -66z
m-2114 -133 c19 -8 40 -26 47 -40 6 -15 17 -26 24 -26 21 0 25 -35 22 -160
l-3 -115 187 -5 c102 -3 190 -8 194 -13 4 -4 -11 -7 -34 -7 -23 0 -61 -8 -84
-17 -33 -14 -72 -18 -168 -18 -133 0 -172 7 -152 27 15 15 15 63 0 128 -9 40
-18 55 -40 66 -15 8 -28 17 -28 20 0 3 12 16 28 29 l27 25 -75 -1 c-79 -2
-130 12 -130 33 1 7 21 26 45 41 25 16 45 33 45 38 0 14 56 11 95 -5z m1182
-32 c36 -21 44 -31 43 -52 -4 -55 0 -81 15 -96 12 -11 16 -41 18 -118 l2 -103
-25 3 c-47 7 -60 29 -60 104 0 73 -11 108 -35 108 -23 0 -18 10 22 45 l37 32
-59 -4 c-61 -3 -110 12 -110 34 0 14 75 71 94 72 8 1 34 -11 58 -25z m1017 -7
c33 -44 33 -57 -3 -57 -22 0 -31 6 -41 30 -13 30 -8 60 9 60 6 0 21 -15 35
-33z m1699 -12 l38 -45 -34 0 c-19 0 -54 -7 -78 -15 -40 -15 -45 -14 -56 2 -7
9 -13 22 -13 29 0 17 70 74 90 74 8 -1 32 -21 53 -45z m794 20 c8 -22 -6 -33
-17 -15 -13 20 -12 30 0 30 6 0 13 -7 17 -15z m-912 -158 c-31 -8 -35 -13 -39
-50 -12 -89 -13 -89 -15 -5 -1 78 1 88 20 102 20 13 23 12 44 -12 l24 -27 -34
-8z m995 59 c0 -3 -4 -8 -10 -11 -5 -3 -10 -1 -10 4 0 6 5 11 10 11 6 0 10 -2
10 -4z m-2630 -40 c0 -3 -4 -8 -10 -11 -5 -3 -10 -1 -10 4 0 6 5 11 10 11 6 0
10 -2 10 -4z m2580 -44 c0 -4 -5 -13 -12 -20 -9 -9 -7 -12 8 -12 12 0 23 -3
26 -6 10 -9 -4 -44 -14 -38 -5 3 -4 -3 3 -14 10 -16 9 -28 -7 -66 -10 -25 -23
-46 -28 -46 -4 0 -6 7 -3 15 4 8 2 17 -3 20 -6 4 -10 1 -10 -4 0 -6 -5 -11
-10 -11 -6 0 -10 6 -8 13 1 6 -6 25 -16 40 -15 23 -17 32 -8 52 13 29 48 33
56 8 2 -10 2 -1 -1 19 -3 20 -2 41 2 47 7 13 25 15 25 3z m-50 -23 c0 -14 -5
-19 -17 -17 -23 4 -28 25 -6 31 10 3 19 5 21 6 1 0 2 -8 2 -20z m2780 -59 c0
-5 -7 -10 -16 -10 -8 0 -12 5 -9 10 3 6 10 10 16 10 5 0 9 -4 9 -10z m60 -9
c0 -12 -29 -23 -41 -15 -5 3 -7 10 -4 15 8 12 45 12 45 0z m-3790 -63 c0 -15
-4 -29 -8 -32 -5 -3 -61 -8 -126 -12 l-117 -7 3 34 3 34 70 6 c39 3 94 5 123
5 50 -1 52 -2 52 -28z m570 -38 c0 -11 -2 -20 -4 -20 -2 0 -6 9 -9 20 -3 11
-1 20 4 20 5 0 9 -9 9 -20z m3274 -18 c2 -4 1 -14 -4 -22 -7 -11 -12 -12 -21
-3 -6 6 -8 16 -5 22 8 13 23 14 30 3z m-3554 -34 c0 -19 -2 -20 -10 -8 -13 19
-13 30 0 30 6 0 10 -10 10 -22z m714 6 c3 -9 6 -26 6 -39 0 -13 5 -27 10 -30
7 -4 1 -16 -15 -31 l-25 -24 -21 21 c-23 23 -16 43 12 34 10 -4 19 -2 19 3 0
6 -5 12 -10 14 -12 4 -2 68 10 68 4 0 11 -7 14 -16z m2897 -74 c22 -13 25 -26
5 -33 -19 -7 -51 17 -42 31 9 15 12 15 37 2z"/>
<path d="M288 6542 c-3 -10 0 -47 7 -83 l13 -64 1 77 c1 72 -11 110 -21 70z"/>
<path d="M313 6335 c0 -27 2 -38 4 -22 2 15 2 37 0 50 -2 12 -4 0 -4 -28z"/>
<path d="M322 6200 c0 -14 2 -19 5 -12 2 6 2 18 0 25 -3 6 -5 1 -5 -13z"/>
<path d="M321 6144 c0 -11 3 -14 6 -6 3 7 2 16 -1 19 -3 4 -6 -2 -5 -13z"/>
<path d="M1534 6596 c-9 -22 2 -46 21 -46 12 0 15 8 13 27 -3 30 -25 42 -34
19z"/>
<path d="M1717 6513 c-13 -12 -7 -43 8 -43 8 0 15 6 15 13 0 18 -15 38 -23 30z"/>
<path d="M1522 6394 c2 -15 9 -29 16 -32 10 -3 13 4 10 24 -2 15 -9 29 -16 32
-10 3 -13 -4 -10 -24z"/>
<path d="M1444 5875 c-9 -36 2 -57 28 -53 30 4 37 44 11 63 -26 20 -32 18 -39
-10z"/>
<path d="M1642 5880 c0 -14 2 -19 5 -12 2 6 2 18 0 25 -3 6 -5 1 -5 -13z"/>
<path d="M1024 6506 c-8 -21 -1 -49 14 -54 8 -2 12 7 12 27 0 33 -17 51 -26
27z"/>
<path d="M1107 6513 c-9 -9 -9 -63 1 -63 22 1 34 20 28 44 -6 26 -16 32 -29
19z"/>
<path d="M950 5900 c0 -5 5 -10 11 -10 5 0 7 5 4 10 -3 6 -8 10 -11 10 -2 0
-4 -4 -4 -10z"/>
<path d="M2355 4411 c-3 -5 -1 -12 4 -15 5 -3 11 1 15 9 6 16 -9 21 -19 6z"/>
<path d="M2320 4392 c0 -4 -15 -13 -32 -21 -18 -7 -28 -15 -21 -17 16 -7 75
25 68 36 -7 12 -15 13 -15 2z"/>
<path d="M177 4803 c-10 -9 -8 -43 2 -43 5 0 11 11 13 25 5 24 -2 32 -15 18z"/>
<path d="M336 4744 c-4 -20 -5 -38 -3 -40 3 -3 8 11 11 32 4 20 5 38 3 40 -3
3 -8 -11 -11 -32z"/>
<path d="M228 4730 c-5 -41 -36 -166 -54 -215 -5 -13 -4 -17 3 -10 17 17 73
175 72 203 0 15 -4 36 -8 47 -7 16 -9 10 -13 -25z"/>
<path d="M1075 4150 c3 -5 8 -10 11 -10 2 0 4 5 4 10 0 6 -5 10 -11 10 -5 0
-7 -4 -4 -10z"/>
<path d="M6765 3780 c-3 -5 -2 -10 4 -10 5 0 13 5 16 10 3 6 2 10 -4 10 -5 0
-13 -4 -16 -10z"/>
<path d="M2400 3181 c0 -5 5 -13 10 -16 6 -3 10 -2 10 4 0 5 -4 13 -10 16 -5
3 -10 2 -10 -4z"/>
<path d="M7110 3199 c0 -5 5 -7 10 -4 6 3 10 8 10 11 0 2 -4 4 -10 4 -5 0 -10
-5 -10 -11z"/>
<path d="M7241 3055 c0 -5 6 -21 14 -35 8 -14 14 -20 14 -15 0 6 -6 21 -14 35
-8 14 -14 21 -14 15z"/>
<path d="M7182 3027 c-14 -17 2 -42 22 -34 20 8 20 21 2 36 -10 8 -16 8 -24
-2z"/>
<path d="M4881 2750 c-5 -16 -14 -30 -19 -30 -6 0 -13 -7 -16 -16 -3 -8 -2
-13 3 -9 19 11 43 -28 38 -62 -3 -18 -4 -33 -1 -33 3 0 68 47 133 97 2 2 1 6
-2 9 -4 4 -14 1 -23 -6 -13 -12 -17 -11 -26 1 -8 11 -9 11 -5 -3 4 -10 -3 -22
-17 -32 l-23 -15 -2 56 c0 30 -3 59 -7 64 -10 17 -22 9 -33 -21z"/>
<path d="M8560 10234 c0 -3 13 -23 28 -43 47 -59 212 -308 212 -319 0 -5 6
-15 14 -21 12 -10 29 2 92 68 43 45 81 81 84 81 4 0 13 -11 20 -25 10 -20 11
-28 2 -37 -16 -16 -15 -28 3 -28 8 0 15 6 15 13 0 6 22 -33 49 -88 66 -134
101 -211 101 -224 0 -6 5 -11 10 -11 12 0 13 -37 1 -44 -10 -7 -2 -56 10 -56
14 0 20 18 7 23 -9 4 -10 6 -1 6 6 1 15 -4 18 -10 9 -14 -52 -70 -73 -67 -13
2 -17 -4 -17 -27 -1 -23 -7 -33 -29 -44 -22 -10 -25 -15 -15 -22 10 -6 11 -9
2 -9 -7 0 -13 -8 -13 -18 0 -10 -5 -23 -11 -29 -6 -6 -8 -16 -5 -22 13 -20 65
-12 119 18 66 37 116 48 128 30 5 -8 9 -37 9 -64 0 -28 4 -55 9 -60 6 -6 14
-37 20 -70 6 -33 17 -86 24 -117 11 -45 12 -58 2 -58 -7 0 -15 14 -18 30 -7
32 -27 41 -27 12 0 -22 22 -72 33 -72 4 0 7 5 7 10 0 6 5 10 10 10 6 0 10 -12
10 -26 0 -19 -4 -25 -15 -20 -10 4 -15 -1 -15 -14 0 -11 7 -20 15 -20 8 0 15
-6 15 -14 0 -8 7 -16 15 -20 22 -8 18 -23 -7 -31 l-23 -8 23 -4 c26 -5 27 -14
7 -53 -17 -32 -14 -36 14 -21 16 9 19 1 29 -78 14 -105 15 -154 3 -147 -5 3
-7 -9 -5 -27 1 -17 3 -37 3 -44 1 -7 8 -10 16 -7 9 4 15 0 15 -9 0 -25 -31
-29 -50 -7 -17 19 -17 19 -28 -5 -6 -14 -34 -36 -64 -51 -29 -14 -55 -28 -56
-30 -2 -1 1 -19 8 -38 l12 -36 80 0 c73 0 79 -2 72 -17 -10 -22 -21 -159 -20
-236 1 -53 5 -62 33 -87 17 -15 49 -31 71 -35 42 -7 62 -33 62 -79 0 -32 20
-53 60 -63 29 -8 37 -16 51 -55 23 -64 32 -121 35 -218 3 -108 14 -183 28
-192 5 -4 11 -39 13 -78 1 -39 7 -78 14 -87 10 -11 10 -18 1 -31 -7 -10 -15
-25 -18 -34 -4 -10 -11 -18 -18 -19 -6 0 -21 -2 -33 -3 -27 -3 -33 24 -33 146
0 83 -1 89 -19 83 -13 -4 -25 2 -40 20 -20 26 -41 26 -41 1 0 -14 -11 -36 -50
-100 l-24 -40 -13 32 c-7 18 -17 32 -21 32 -4 0 -18 -22 -29 -50 -12 -27 -25
-50 -31 -50 -8 0 -31 46 -46 93 -9 29 -22 12 -40 -52 -9 -33 -21 -63 -26 -66
-6 -4 -10 -18 -10 -33 l0 -27 -20 25 c-11 14 -20 31 -20 38 0 24 -21 12 -32
-18 -13 -39 -29 -34 -41 11 -15 60 -25 53 -43 -30 -10 -44 -20 -81 -24 -81 -3
0 -17 18 -30 40 -14 22 -29 38 -34 37 -5 -2 -15 -27 -23 -57 -7 -30 -15 -56
-17 -58 -2 -2 -12 10 -22 27 -20 34 -44 41 -44 13 0 -10 -6 -26 -13 -36 -13
-17 -15 -16 -36 18 -13 20 -25 36 -27 36 -3 0 -16 -25 -30 -56 -24 -55 -46
-67 -52 -28 -7 34 -21 38 -33 11 -16 -35 -31 -34 -52 3 -21 34 -37 39 -37 11
0 -28 -19 -36 -34 -15 -12 16 -14 14 -24 -14 -13 -37 -27 -41 -42 -12 -11 20
-11 19 -35 -7 -21 -23 -26 -26 -34 -13 -11 16 -10 17 -40 -32 -12 -21 -26 -38
-30 -38 -5 0 -17 11 -27 25 -25 33 -30 32 -44 -10 -12 -37 -19 -42 -38 -23 -9
9 -13 7 -18 -6 -4 -10 -13 -15 -24 -11 -9 3 -23 -2 -30 -10 -7 -9 -21 -13 -31
-10 -12 4 -21 1 -25 -9 -3 -9 -16 -16 -27 -16 -53 0 -80 -8 -89 -24 -8 -14
-12 -15 -24 -5 -13 10 -19 8 -38 -16 -12 -15 -28 -25 -34 -21 -6 3 -14 1 -17
-5 -4 -5 -13 -8 -21 -5 -7 3 -16 1 -19 -4 -4 -6 -15 -10 -25 -10 -10 0 -22 -9
-25 -20 -7 -22 -35 -28 -35 -7 0 6 -5 4 -11 -6 -10 -18 -11 -18 -24 0 -13 17
-14 17 -20 1 -8 -19 -35 -25 -35 -8 0 19 -21 10 -32 -15 -12 -27 -38 -34 -38
-10 0 15 -20 22 -20 8 0 -5 -4 -14 -9 -21 -7 -12 -12 -12 -30 0 -18 11 -23 11
-30 -1 -7 -10 -10 -10 -16 -1 -6 9 -13 6 -27 -11 l-18 -24 -19 22 -19 23 -6
-24 c-10 -39 2 -55 84 -115 100 -73 94 -69 245 -157 191 -112 237 -143 229
-156 -5 -7 -2 -9 8 -5 9 3 19 2 24 -3 21 -21 183 -94 224 -102 25 -5 115 -15
200 -22 315 -29 410 -40 410 -49 0 -9 -109 -5 -238 8 -37 4 -42 3 -24 -5 12
-5 80 -17 150 -26 70 -9 135 -20 144 -25 9 -5 36 -10 60 -10 l43 -2 -40 -6
c-35 -5 -40 -10 -46 -39 -7 -35 -29 -68 -29 -44 0 7 -4 12 -10 12 -5 0 -10 -8
-10 -18 0 -35 -14 -33 -25 4 -12 44 -26 45 -41 2 -8 -26 -12 -29 -17 -14 -4
10 -7 27 -7 38 0 35 -23 13 -37 -37 -8 -26 -21 -57 -28 -69 -21 -33 -29 -112
-14 -147 12 -29 15 -31 56 -26 26 3 46 0 51 -7 13 -20 54 -39 61 -27 4 6 17 8
29 4 12 -3 20 -9 17 -13 -2 -4 41 -13 96 -20 75 -9 99 -16 95 -26 -3 -7 -10
-32 -16 -56 l-12 -43 -19 38 c-11 20 -21 37 -24 37 -2 0 -14 -22 -26 -50 -21
-49 -39 -58 -39 -19 0 31 -20 22 -27 -12 -4 -24 -10 -29 -24 -26 -12 3 -19 0
-19 -8 0 -8 -15 -24 -32 -36 -18 -13 -36 -28 -40 -33 -10 -16 -24 2 -41 54
-16 49 -37 65 -37 28 0 -33 -18 -90 -35 -112 -11 -15 -17 -17 -29 -7 -12 10
-16 8 -21 -8 -8 -28 -34 -27 -44 1 -8 22 -9 22 -24 -8 -12 -24 -23 -31 -47
-32 -19 0 -38 -9 -50 -24 -22 -26 -24 -37 -11 -56 9 -15 30 -10 176 48 44 17
89 33 100 34 11 2 43 10 70 19 28 9 70 22 95 28 25 7 50 16 55 19 20 14 76 29
70 20 -4 -6 0 -10 7 -10 10 0 10 -2 -1 -9 -16 -10 -6 -31 15 -31 23 0 16 -17
-9 -24 -20 -5 -22 -11 -19 -39 3 -28 -2 -40 -29 -68 -28 -29 -32 -30 -27 -11
5 19 4 21 -8 11 -8 -6 -14 -19 -14 -27 0 -12 -3 -13 -12 -4 -8 8 -18 5 -40
-13 -16 -14 -38 -25 -48 -25 -10 0 -20 -7 -24 -15 -6 -17 9 -21 19 -5 3 6 12
10 18 10 7 -1 -1 -12 -17 -25 -17 -13 -33 -22 -38 -19 -4 3 -13 -4 -20 -15 -9
-14 -20 -19 -38 -16 -14 3 -19 2 -12 -1 6 -3 12 -12 12 -20 0 -12 20 -14 111
-12 61 2 100 6 87 10 -17 4 -13 6 14 5 40 -2 48 -16 23 -37 -9 -7 -14 -19 -11
-27 3 -8 2 -12 -3 -9 -11 7 -41 -38 -47 -71 -13 -70 -59 -108 -59 -49 0 28
-27 52 -45 41 -6 -3 -10 -14 -10 -23 0 -9 -9 -32 -21 -51 -14 -23 -17 -36 -9
-41 15 -9 1 -40 -16 -33 -10 3 -12 0 -9 -10 7 -16 -47 -67 -71 -67 -8 0 -14
10 -14 24 0 13 -7 43 -15 66 -8 24 -19 81 -25 128 -5 47 -12 87 -15 90 -11 12
-19 -12 -22 -66 -7 -124 -11 -160 -17 -170 -3 -5 -7 -31 -8 -56 0 -26 -5 -49
-10 -52 -4 -3 -8 -19 -8 -36 0 -17 -7 -36 -16 -43 -14 -10 -15 -14 -3 -34 13
-20 12 -24 -11 -42 -23 -18 -24 -20 -7 -33 23 -18 22 -39 -3 -61 -13 -12 -20
-29 -18 -44 2 -20 -2 -27 -18 -29 -11 -2 -27 4 -34 13 -8 10 -9 15 -2 15 12 0
9 15 -16 70 -9 19 -15 51 -15 70 1 19 -3 40 -9 47 -5 7 -7 16 -4 21 6 10 -41
102 -52 102 -9 0 -36 -59 -38 -80 -1 -9 -6 -26 -13 -38 -8 -16 -8 -22 -1 -22
6 0 3 -12 -8 -27 -33 -48 -34 -52 -11 -46 19 5 20 3 11 -14 -14 -25 -31 -39
-61 -48 -20 -6 -23 -4 -18 9 4 10 0 27 -8 39 -8 12 -16 45 -19 72 -2 28 -5 53
-5 58 -3 22 -30 0 -59 -47 -32 -55 -40 -86 -22 -86 6 0 10 -5 10 -11 0 -8 -5
-8 -15 1 -23 19 -48 -6 -43 -42 3 -19 0 -28 -9 -28 -9 0 -11 5 -7 13 5 6 -14
-8 -41 -32 -48 -42 -216 -131 -247 -131 -25 0 -40 -27 -34 -57 6 -24 2 -31
-26 -48 -18 -11 -42 -23 -53 -26 -18 -5 -20 -13 -19 -98 1 -51 5 -126 9 -167
l7 -74 73 0 c41 0 77 5 80 10 3 6 15 10 26 10 14 0 7 -11 -31 -48 -28 -27 -50
-55 -50 -63 0 -8 22 9 48 36 l47 50 503 0 c412 0 504 -2 511 -14 7 -10 13 -11
31 -1 15 8 121 13 333 16 172 2 316 4 320 4 4 0 3 9 -4 21 -7 13 -10 76 -10
167 2 165 8 183 69 209 61 25 96 27 155 5 30 -12 113 -33 183 -48 71 -14 140
-32 154 -39 14 -7 41 -20 60 -28 l35 -16 -40 -2 c-22 -2 -51 -2 -65 -2 -14 1
-46 2 -72 3 -59 3 -73 -8 -89 -71 -7 -27 -16 -49 -20 -49 -4 0 -11 17 -16 38
-8 34 -12 37 -43 38 -19 0 -44 5 -55 11 -26 14 -45 6 -45 -18 0 -10 -5 -19
-11 -19 -7 0 -10 -12 -7 -30 3 -21 0 -30 -9 -30 -25 0 -26 -29 -2 -51 l24 -20
-27 4 c-15 2 -26 1 -25 -2 5 -20 -15 -71 -28 -71 -8 0 -15 -5 -15 -11 0 -6 12
-8 33 -5 24 5 27 4 12 -3 -19 -9 -19 -10 2 -10 12 -1 25 -6 28 -11 3 -6 16
-11 28 -11 14 -1 16 -3 7 -5 -9 -3 -47 7 -85 21 -45 17 -64 21 -56 12 6 -8 51
-29 99 -47 48 -17 122 -46 165 -63 67 -27 75 -32 55 -38 -38 -10 -770 -15
-795 -5 -19 7 -23 5 -23 -9 0 -14 -5 -16 -22 -10 -21 7 -186 10 -820 18 -119
1 -211 -1 -205 -5 17 -10 3 -19 -38 -23 -35 -3 -75 -32 -75 -55 0 -5 -4 -10
-10 -10 -5 0 -10 -7 -10 -15 0 -8 -4 -15 -10 -15 -5 0 -10 5 -10 11 0 14 -32
-32 -90 -130 l-43 -72 11 -75 c9 -67 16 -82 63 -147 103 -141 101 -137 95
-190 -4 -26 -9 -54 -12 -62 -8 -19 263 -150 391 -190 111 -34 195 -85 195
-117 -1 -52 -57 -90 -127 -86 -40 2 -64 13 -157 75 -60 40 -170 105 -243 144
l-135 71 -19 -21 c-11 -12 -31 -21 -44 -21 -14 0 -25 -2 -25 -4 0 -7 59 -144
140 -326 118 -267 282 -602 290 -593 9 11 67 316 79 418 6 44 13 122 17 172 4
51 9 93 11 93 13 0 43 -22 43 -33 0 -7 7 -25 16 -42 10 -19 20 -80 27 -163 9
-114 8 -157 -7 -300 -10 -92 -25 -184 -34 -206 -8 -21 -16 -69 -16 -106 -1
-38 -4 -66 -8 -63 -22 13 47 -125 150 -298 177 -299 296 -474 594 -871 l73
-98 527 0 528 0 0 2546 0 2545 -29 -20 c-16 -12 -36 -18 -45 -15 -27 10 -18
21 29 33 l45 11 0 2570 0 2570 -840 0 c-462 0 -840 -3 -840 -6z m1390 -3314
c-8 -5 -25 -10 -36 -10 -12 0 -26 -6 -32 -12 -11 -14 -28 -87 -23 -103 2 -5 3
-40 3 -77 -1 -37 3 -70 7 -73 5 -2 6 -16 3 -30 -2 -14 1 -32 8 -39 9 -11 9
-20 0 -37 -7 -13 -10 -38 -6 -60 4 -26 2 -39 -5 -39 -7 0 -9 -9 -5 -25 5 -18
1 -27 -13 -35 -29 -15 -33 -13 -21 11 14 26 11 29 -19 18 -19 -8 -21 -12 -11
-24 11 -13 9 -15 -18 -13 -19 1 -39 -5 -51 -16 -20 -18 -21 -18 -28 0 -4 11
-7 62 -7 114 4 337 4 330 25 381 16 37 28 51 48 55 14 3 37 10 51 14 37 12
149 12 130 0z m-137 -649 c19 -19 -2 -24 -43 -12 -51 15 -54 36 -3 28 20 -4
41 -11 46 -16z m212 -111 c-3 -5 -15 -10 -26 -10 -37 0 -77 -29 -95 -70 -10
-22 -19 -38 -22 -36 -2 3 -1 29 3 60 7 54 8 55 44 59 75 8 102 7 96 -3z m-158
-12 c-2 -7 -11 -12 -20 -10 -35 6 -45 -37 -52 -228 -3 -102 -11 -217 -15 -257
-7 -56 -6 -81 6 -115 8 -24 21 -80 28 -123 8 -44 21 -101 30 -127 18 -56 15
-57 -58 -29 -81 30 -86 42 -86 198 0 199 19 573 32 613 18 60 53 88 111 89 19
1 27 -3 24 -11z m-26 -298 c-6 -44 -9 -53 -10 -29 -1 37 9 102 15 96 2 -1 -1
-32 -5 -67z m-24 -157 c-3 -10 -5 -4 -5 12 0 17 2 24 5 18 2 -7 2 -21 0 -30z
m38 -70 c-4 -31 -10 -66 -15 -77 -15 -41 -22 20 -9 79 16 73 33 72 24 -2z
m-66 -446 c9 -7 52 -22 96 -32 103 -23 189 -53 155 -54 -14 0 -45 4 -69 10
-75 17 -81 10 -77 -84 4 -87 -11 -318 -23 -352 -4 -11 -4 -38 0 -60 4 -22 4
-42 0 -45 -4 -3 -8 -43 -8 -90 0 -90 -8 -134 -24 -125 -13 9 -11 -9 4 -24 10
-10 9 -11 -5 -6 -14 6 -18 1 -20 -21 -1 -16 -2 -36 -3 -44 0 -9 -11 -26 -23
-38 -12 -12 -22 -31 -22 -42 0 -11 -4 -20 -10 -20 -5 0 -10 -9 -10 -20 0 -23
-25 -27 -46 -6 -26 26 -31 134 -27 510 5 449 9 496 46 544 12 16 46 15 66 -1z
m-949 -707 c-5 -11 -14 -28 -19 -39 -19 -38 -24 -93 -10 -102 10 -6 7 -10 -11
-17 -14 -5 -31 -7 -37 -5 -20 8 -15 44 8 69 l21 22 -21 21 c-24 24 -20 41 8
41 9 0 26 7 37 15 27 20 36 18 24 -5z m-604 -337 c8 -18 14 -57 14 -86 0 -105
-94 -237 -169 -237 -21 0 -17 5 24 24 70 32 112 92 130 183 9 45 -12 137 -35
158 -11 10 -20 23 -20 28 0 16 41 -35 56 -70z m-120 -30 c-10 -10 -19 5 -10
18 6 11 8 11 12 0 2 -7 1 -15 -2 -18z m-276 -140 c0 -10 7 -31 16 -48 l15 -30
-30 29 c-33 31 -41 66 -16 66 8 0 15 -8 15 -17z m321 -41 c-15 -28 -64 -62
-105 -73 -26 -7 -45 -5 -75 7 -23 9 -41 20 -41 24 0 5 12 2 28 -6 15 -7 40
-14 55 -14 36 0 101 33 124 64 21 28 29 27 14 -2z m1779 -394 c-1 -73 -1 -73
-17 -43 -11 20 -12 30 -4 33 6 2 11 21 11 43 0 21 2 39 5 39 3 0 5 -33 5 -72z
m-1786 -220 c9 -12 16 -34 15 -48 -1 -22 -2 -21 -10 8 -6 18 -16 35 -24 39 -8
3 -15 9 -15 14 0 16 19 9 34 -13z m1239 -908 c20 -58 49 -155 65 -216 23 -92
26 -112 15 -123 -11 -10 -11 -16 -2 -27 19 -23 -24 -18 -55 7 -45 35 -56 71
-62 192 -3 61 -9 136 -15 166 -5 30 -9 80 -9 110 1 55 1 55 14 26 7 -16 29
-77 49 -135z m83 -457 c-10 -10 -19 5 -10 18 6 11 8 11 12 0 2 -7 1 -15 -2
-18z m-26 -45 c-4 -18 -11 -41 -15 -50 -8 -20 -34 -25 -31 -5 3 23 31 77 39
77 5 0 5 5 1 12 -4 6 -3 8 3 5 7 -4 8 -19 3 -39z"/>
<path d="M9770 6866 c-15 -42 -11 -55 6 -17 8 19 12 36 9 39 -2 3 -9 -7 -15
-22z"/>
<path d="M9730 6399 c0 -5 5 -7 10 -4 6 3 10 8 10 11 0 2 -4 4 -10 4 -5 0 -10
-5 -10 -11z"/>
<path d="M9780 5098 c-25 -53 -25 -64 1 -46 27 17 53 88 33 88 -7 0 -23 -19
-34 -42z"/>
<path d="M1200 9924 c0 -6 -16 -19 -35 -30 -27 -14 -43 -37 -78 -109 -43 -89
-75 -191 -63 -202 11 -11 20 6 22 43 3 36 71 184 85 184 4 0 9 -6 12 -12 2 -7
7 -10 11 -6 4 3 3 16 -4 27 -6 12 -7 21 -3 21 4 0 23 14 41 30 26 24 31 34 23
48 -6 9 -11 12 -11 6z"/>
<path d="M1235 9900 c-3 -5 1 -10 9 -10 8 0 18 5 21 10 3 6 -1 10 -9 10 -8 0
-18 -4 -21 -10z"/>
<path d="M1080 9875 c0 -17 2 -18 24 -9 23 9 20 24 -4 24 -11 0 -20 -7 -20
-15z"/>
<path d="M1275 9863 c-4 -13 -14 -23 -21 -23 -10 0 -14 -13 -14 -42 0 -41 14
-44 22 -4 1 11 9 21 17 24 11 4 13 -3 8 -29 l-6 -34 15 29 c10 18 12 31 6 35
-6 3 -12 20 -15 36 -4 28 -5 29 -12 8z"/>
<path d="M8900 9865 c0 -7 -7 -18 -16 -23 -11 -6 -13 -11 -5 -16 6 -4 11 -2
11 3 0 22 36 10 52 -16 13 -21 18 -23 18 -10 0 9 -9 26 -20 37 -11 11 -20 25
-20 30 0 6 -4 10 -10 10 -5 0 -10 -7 -10 -15z"/>
<path d="M1205 9730 c3 -5 10 -10 16 -10 5 0 9 5 9 10 0 6 -7 10 -16 10 -8 0
-12 -4 -9 -10z"/>
<path d="M1186 9673 c-27 -29 -33 -43 -16 -43 6 0 10 4 10 8 0 5 9 18 21 31
12 12 19 25 16 27 -3 3 -17 -7 -31 -23z"/>
<path d="M1110 9498 c0 -19 2 -20 10 -8 13 19 13 30 0 30 -5 0 -10 -10 -10
-22z"/>
<path d="M9110 9481 c0 -5 5 -13 10 -16 6 -3 10 -2 10 4 0 5 -4 13 -10 16 -5
3 -10 2 -10 -4z"/>
<path d="M9154 9246 c-10 -8 -15 -18 -11 -23 5 -4 15 0 22 10 14 19 55 16 55
-4 0 -5 7 -9 15 -9 24 0 18 27 -7 34 -35 9 -53 7 -74 -8z"/>
<path d="M9180 9220 c0 -5 5 -10 10 -10 6 0 10 5 10 10 0 6 -4 10 -10 10 -5 0
-10 -4 -10 -10z"/>
<path d="M1873 9115 c-58 -52 -167 -188 -229 -285 -16 -25 -34 -51 -41 -57 -6
-7 -20 -27 -32 -46 -11 -18 -38 -47 -59 -64 -22 -18 -52 -52 -68 -78 -33 -51
-57 -64 -79 -41 -9 8 -16 18 -15 21 2 40 -20 21 -55 -48 -15 -29 -35 -61 -45
-72 -29 -32 -42 -72 -25 -79 18 -6 27 7 19 28 -5 12 -2 15 12 10 13 -4 15 -3
6 3 -10 8 -8 18 11 51 19 33 26 39 36 29 11 -10 12 -7 6 12 -5 15 -3 26 6 32
20 13 29 11 29 -6 0 -8 -4 -15 -10 -15 -5 0 -7 -7 -4 -15 4 -8 10 -12 15 -9
12 7 12 -12 0 -34 -13 -23 -22 -49 -36 -99 l-12 -42 26 5 c24 5 29 -2 83 -112
31 -64 54 -122 52 -129 -6 -16 -79 -56 -87 -48 -11 10 -34 -16 -61 -67 l-26
-50 25 -6 c14 -3 25 -12 25 -19 0 -28 21 -25 31 4 6 17 17 31 25 31 10 0 11
-6 4 -25 -5 -14 -7 -25 -5 -25 3 0 36 31 74 69 82 83 122 102 218 104 40 1 73
5 73 10 0 11 28 8 35 -4 4 -6 -2 -13 -14 -16 -33 -9 -24 -22 12 -18 19 2 40
14 53 30 11 14 23 22 27 19 4 -4 7 -38 7 -76 0 -69 10 -85 35 -52 10 15 13 13
18 -14 4 -18 14 -33 27 -37 16 -5 20 -15 20 -51 0 -25 4 -43 9 -39 5 3 12 -4
16 -15 3 -11 15 -20 25 -20 21 0 30 30 35 108 4 48 2 52 -18 52 -15 0 -18 3
-10 11 8 8 16 7 29 -1 26 -16 102 25 129 70 11 18 43 56 72 84 43 43 50 54 41
70 -9 16 -7 17 11 11 14 -4 28 1 43 14 12 12 18 21 13 21 -5 0 -17 -7 -27 -17
-10 -9 -21 -13 -24 -10 -10 10 36 66 67 83 25 12 28 18 18 30 -17 21 -39 17
-61 -11 -11 -14 -29 -30 -41 -37 -21 -11 -21 -10 -4 9 9 11 17 24 17 30 0 6 7
16 15 23 17 14 12 44 -11 71 -8 8 -19 31 -25 50 -6 19 -23 44 -37 56 -16 14
-23 27 -18 38 6 16 8 16 34 0 34 -22 52 -44 52 -64 0 -14 -1 -14 -10 -1 -8 13
-10 12 -10 -3 0 -11 9 -21 20 -24 10 -3 22 -13 25 -23 3 -10 26 -39 51 -64 35
-36 50 -45 67 -41 16 4 29 -1 45 -20 13 -15 28 -25 35 -22 6 2 24 -10 39 -27
35 -38 43 -30 23 25 -9 24 -27 79 -41 122 -14 42 -29 77 -34 77 -20 0 -21 -59
-1 -99 31 -59 28 -78 -6 -46 -16 15 -40 31 -54 36 -29 11 -89 87 -89 113 0 22
30 20 31 -1 0 -10 5 -5 9 11 12 38 5 47 -25 36 -25 -9 -55 -4 -55 10 0 4 -9
17 -20 30 -11 13 -20 20 -20 17 0 -4 -8 1 -17 11 -12 12 -19 35 -20 72 l-2 55
19 -25 c11 -14 20 -30 20 -36 0 -15 59 -69 66 -61 4 4 -1 9 -10 13 -9 3 -16
12 -16 18 0 7 -11 23 -25 36 -14 13 -25 27 -25 31 0 5 -13 29 -29 54 -23 36
-30 42 -34 28 -4 -15 -5 -14 -6 4 0 12 -5 24 -11 28 -5 3 -7 12 -3 21 3 8 2
14 -3 13 -21 -4 -26 2 -14 16 10 11 6 25 -20 69 -17 31 -34 58 -38 60 -4 2 -5
-21 -3 -51 2 -44 12 -71 48 -131 39 -67 43 -78 32 -99 -14 -26 -37 -30 -53 -8
-9 13 -23 -3 -76 -90 -70 -115 -94 -132 -84 -62 3 23 9 53 14 67 4 14 13 52
20 85 7 33 19 69 26 80 10 14 13 36 8 75 -5 44 -3 59 9 69 13 10 14 17 4 39
-6 15 -14 29 -17 32 -4 3 -12 20 -19 38 -14 34 -61 71 -48 38 5 -13 3 -14 -13
-3 -11 6 -20 14 -21 17 -7 53 -6 65 3 71 7 5 7 9 -1 13 -6 4 -11 2 -11 -4 0
-6 -4 -9 -10 -5 -5 3 -7 12 -3 20 10 28 -14 15 -74 -40z m-129 -681 c9 -3 16
-12 16 -20 0 -8 5 -14 10 -14 6 0 10 -18 10 -40 0 -22 -4 -40 -10 -40 -5 0
-10 5 -10 10 0 6 -15 8 -39 4 -38 -6 -38 -6 -45 32 -7 32 -4 40 16 56 26 20
30 21 52 12z m-104 -111 c-8 -4 -20 -13 -27 -22 -11 -15 -12 -14 -13 1 0 17
14 26 40 26 13 0 13 0 0 -5z m148 -45 c9 -9 12 -9 12 0 0 9 4 9 19 0 12 -7 21
-28 25 -61 3 -28 9 -53 13 -56 5 -3 9 -23 10 -43 2 -28 -2 -38 -12 -38 -11 0
-14 7 -10 23 6 23 -34 108 -53 115 -5 1 -35 -17 -66 -43 -58 -47 -76 -54 -76
-32 0 14 7 23 78 104 41 47 43 48 60 31z m-438 -348 c0 -5 -5 -10 -11 -10 -5
0 -7 5 -4 10 3 6 8 10 11 10 2 0 4 -4 4 -10z"/>
<path d="M9288 9143 c6 -2 12 -14 12 -26 1 -12 7 -35 15 -52 l15 -30 -6 40
c-8 62 -14 75 -32 74 -11 0 -12 -3 -4 -6z"/>
<path d="M9270 9055 c0 -8 4 -15 10 -15 5 0 7 7 4 15 -4 8 -8 15 -10 15 -2 0
-4 -7 -4 -15z"/>
<path d="M3726 8882 c-3 -5 8 -16 25 -26 22 -13 40 -16 77 -10 l47 7 -35 12
c-54 18 -108 27 -114 17z"/>
<path d="M4556 8796 c-28 -47 -99 -126 -114 -126 -5 0 -17 -16 -28 -35 -10
-19 -22 -35 -26 -35 -5 0 -8 -12 -8 -26 0 -14 -4 -23 -9 -20 -5 3 -23 -33 -40
-81 -47 -132 -50 -136 -50 -81 -1 25 -6 48 -12 50 -6 2 -19 28 -29 57 -19 56
-21 54 -35 -19 -11 -57 -37 -120 -47 -114 -6 4 -8 -6 -3 -27 4 -22 3 -29 -3
-20 -11 15 -27 -2 -17 -18 3 -5 1 -12 -5 -16 -5 -3 -10 -11 -10 -17 0 -13 38
25 69 70 29 42 39 40 47 -5 7 -43 26 -93 35 -93 11 0 78 155 68 158 -21 8 5
22 42 22 44 0 77 -27 101 -81 10 -23 14 -25 19 -12 3 10 11 -8 19 -45 7 -34
16 -62 19 -62 4 0 14 8 22 18 9 9 32 32 53 50 20 18 34 37 31 42 -3 5 -6 34
-6 65 -1 47 -5 58 -27 76 -18 13 -34 18 -50 14 -22 -5 -23 -5 -9 10 9 8 32 16
52 17 20 1 35 6 35 14 0 20 -29 25 -67 9 -56 -24 -67 -21 -49 13 31 59 84 178
90 201 4 22 -16 91 -28 91 -2 0 -16 -20 -30 -44z m-194 -303 c-3 -16 -7 -22
-10 -15 -4 13 4 42 11 42 2 0 2 -12 -1 -27z"/>
<path d="M3718 8790 c-2 -6 -13 -12 -26 -13 -14 -1 -18 -5 -12 -11 12 -12 66
4 63 19 -2 14 -20 18 -25 5z"/>
<path d="M3770 8790 c-8 -5 -11 -12 -7 -17 5 -4 11 -2 15 4 4 6 18 13 32 16
l25 4 -25 1 c-14 1 -32 -2 -40 -8z"/>
<path d="M3830 8780 c-30 -11 -64 -30 -75 -41 -20 -22 -20 -22 0 -15 42 15
143 35 208 42 46 5 67 11 67 20 0 22 -133 18 -200 -6z"/>
<path d="M3530 8749 c-28 -22 -49 -43 -46 -46 5 -6 113 64 122 79 14 22 -31 3
-76 -33z"/>
<path d="M4152 8763 c-10 -10 -9 -13 5 -12 10 0 27 4 38 8 18 7 17 8 -6 13
-14 2 -31 -1 -37 -9z"/>
<path d="M3940 8680 c-21 -7 -21 -8 -5 -9 11 0 27 4 35 9 18 11 5 11 -30 0z"/>
<path d="M2405 8530 c3 -5 8 -10 11 -10 2 0 4 5 4 10 0 6 -5 10 -11 10 -5 0
-7 -4 -4 -10z"/>
<path d="M3302 8487 c-17 -29 -50 -90 -72 -137 -52 -107 -74 -145 -105 -175
-13 -14 -34 -47 -47 -75 -26 -56 -37 -63 -39 -22 -2 27 -2 27 -6 2 -3 -14 -9
-30 -15 -37 -13 -17 -23 -123 -11 -123 6 0 9 -22 6 -52 -3 -45 -2 -49 8 -28 5
14 17 54 25 89 18 77 80 202 128 256 19 22 33 42 30 46 -2 4 3 12 11 19 7 6
22 35 31 63 9 29 34 90 56 136 21 46 37 86 35 87 -2 2 -17 -20 -35 -49z"/>
<path d="M3526 8500 c-49 -37 -52 -40 -38 -40 7 0 21 9 32 20 11 11 24 20 29
20 5 0 14 7 21 15 20 24 -2 17 -44 -15z"/>
<path d="M2440 8453 c0 -35 32 -64 46 -41 4 7 3 8 -4 4 -8 -4 -12 0 -12 11 0
11 -7 28 -15 39 -14 18 -14 17 -15 -13z"/>
<path d="M8465 8433 c-86 -101 -138 -170 -161 -215 -13 -26 -24 -50 -24 -52 0
-11 160 158 165 174 6 20 32 33 46 24 12 -7 11 -44 -1 -44 -5 0 -10 -4 -10 -8
0 -5 -26 -37 -58 -71 -64 -68 -129 -167 -118 -179 4 -4 21 10 38 30 46 58 146
158 158 158 6 0 8 -14 4 -37 -5 -33 -1 -42 27 -71 17 -18 30 -34 28 -35 -61
-35 -75 -35 -83 -2 -4 14 -12 25 -20 25 -17 0 -126 -102 -126 -118 0 -7 4 -12
9 -12 5 0 7 -8 4 -19 -7 -26 16 -37 31 -15 13 17 15 17 30 1 10 -9 25 -17 35
-17 23 0 58 -65 59 -109 1 -32 60 -121 119 -178 13 -12 23 -25 23 -28 0 -12
57 -75 68 -75 10 0 8 56 -2 80 -3 8 -10 35 -15 60 -5 25 -12 54 -16 65 -4 14
1 30 15 48 18 22 29 27 66 27 43 0 44 1 39 28 -3 15 -2 21 1 15 3 -7 15 -13
27 -13 18 0 19 2 7 11 -16 11 -7 10 63 -7 27 -6 27 -6 16 20 -7 14 -16 26 -20
26 -4 0 -10 7 -13 16 -5 14 -4 15 9 4 9 -7 18 -10 22 -7 3 4 12 2 20 -4 8 -7
13 -8 13 -1 0 5 -7 12 -15 16 -8 3 -15 10 -15 15 0 5 -30 41 -67 79 -38 38
-81 93 -97 123 -63 121 -206 319 -229 319 -6 -1 -30 -22 -52 -47z m115 -383
c0 -5 -22 -10 -50 -10 -27 0 -50 5 -50 10 0 6 23 10 50 10 28 0 50 -4 50 -10z"/>
<path d="M3420 8423 c-19 -15 -37 -31 -38 -35 -2 -5 -7 -7 -10 -5 -4 2 -23
-14 -42 -37 l-35 -40 45 32 c59 42 138 112 125 112 -5 0 -26 -12 -45 -27z"/>
<path d="M971 8358 c7 -13 13 -33 14 -45 0 -12 8 -30 16 -40 9 -10 30 -47 48
-83 35 -72 48 -95 74 -124 9 -11 17 -29 17 -40 0 -32 12 -42 54 -50 35 -7 38
-6 31 11 -4 10 -13 36 -20 58 -33 102 -90 202 -150 259 -33 31 -68 62 -78 67
-17 10 -17 8 -6 -13z"/>
<path d="M2578 8193 c6 -2 12 -11 12 -19 0 -8 5 -14 10 -14 6 0 10 4 10 8 0
12 -22 32 -34 31 -6 0 -5 -3 2 -6z"/>
<path d="M4107 8176 c-67 -29 -182 -108 -191 -132 -5 -13 -2 -15 11 -9 86 36
134 47 170 39 38 -8 38 -8 8 -12 -28 -3 -91 -43 -107 -66 -4 -6 -3 -13 3 -16
5 -4 1 -15 -11 -25 -21 -19 -27 -45 -10 -45 6 0 10 4 10 10 0 21 152 91 167
77 2 -3 -3 -27 -13 -54 -16 -46 -16 -50 1 -86 15 -31 22 -38 44 -35 27 3 38
25 61 117 6 23 14 40 17 37 18 -17 158 105 169 147 13 54 8 56 -206 72 -54 5
-75 1 -123 -19z"/>
<path d="M2480 8145 c0 -26 50 -122 83 -159 35 -39 47 -44 47 -21 0 24 20 17
21 -7 l0 -23 9 23 c12 29 3 51 -18 46 -26 -7 -115 82 -109 108 3 11 3 26 0 34
-7 19 -33 18 -33 -1z"/>
<path d="M4481 8068 c-52 -111 -68 -165 -53 -180 9 -9 16 -2 28 28 9 21 17 47
18 57 0 10 7 21 14 26 7 4 12 14 10 22 -2 7 13 21 32 31 29 15 36 25 41 58 5
39 4 40 -23 40 -26 0 -32 -8 -67 -82z"/>
<path d="M8810 8131 c0 -5 7 -15 17 -22 15 -13 15 -12 4 9 -12 23 -21 28 -21
13z"/>
<path d="M820 8121 c0 -5 7 -11 15 -15 9 -3 15 0 15 9 0 8 -7 15 -15 15 -8 0
-15 -4 -15 -9z"/>
<path d="M8120 8121 c0 -9 28 -41 35 -41 3 0 2 7 -1 15 -4 8 -10 15 -16 15 -5
0 -6 5 -3 10 3 6 1 10 -4 10 -6 0 -11 -4 -11 -9z"/>
<path d="M5074 8096 c-3 -9 -10 -16 -15 -16 -15 0 -90 -74 -105 -104 -8 -17
-17 -47 -20 -68 -6 -31 -4 -38 10 -38 25 0 56 19 56 33 0 7 9 18 20 25 24 14
26 7 5 -14 -8 -9 -15 -28 -15 -44 0 -16 -6 -30 -12 -33 -8 -2 -9 -8 -4 -13 5
-5 11 -4 13 4 3 6 11 12 19 12 8 0 14 7 14 15 0 26 18 16 29 -15 11 -32 33
-41 30 -12 -3 29 1 42 11 42 6 0 10 -16 10 -35 0 -19 2 -35 4 -35 2 0 20 -7
40 -15 l37 -16 -4 33 c-3 27 2 38 26 61 17 15 26 27 21 27 -6 0 -16 -6 -23
-12 -11 -11 -13 -8 -9 15 3 15 2 27 -3 27 -15 0 -14 55 1 67 13 10 11 11 -8 6
-31 -8 -53 13 -46 43 4 15 2 24 -5 24 -6 0 -11 9 -11 20 0 11 -4 20 -10 20 -5
0 -10 -16 -10 -35 0 -19 -4 -35 -10 -35 -15 0 -12 -19 6 -38 15 -15 15 -17 -5
-30 -11 -8 -21 -23 -21 -34 0 -11 -5 -18 -11 -16 -6 2 -11 7 -11 11 0 21 15
93 22 102 15 20 17 65 4 76 -11 9 -15 7 -20 -5z m87 -189 c-7 -7 -14 -8 -21
-1 -6 6 -2 10 12 11 16 2 18 -1 9 -10z"/>
<path d="M2343 8078 c-11 -13 -34 -35 -52 -50 -22 -18 -29 -31 -24 -44 5 -13
3 -16 -10 -11 -19 7 -21 -1 -7 -23 8 -12 15 -9 43 20 45 47 87 104 87 118 0
18 -14 14 -37 -10z"/>
<path d="M8003 8043 c-24 -27 -49 -60 -56 -75 -6 -16 -16 -28 -21 -28 -4 0 -5
-7 -2 -16 3 -8 2 -13 -2 -10 -4 2 -18 -12 -32 -31 -14 -19 -40 -51 -59 -69
-27 -28 -31 -37 -21 -49 7 -8 19 -15 26 -15 8 0 14 -7 14 -15 0 -9 -6 -12 -15
-9 -8 4 -15 2 -15 -4 0 -5 7 -12 15 -15 14 -6 55 35 55 55 0 6 11 23 25 40 14
16 25 36 25 44 0 8 4 14 9 14 5 0 22 21 37 48 15 26 30 49 33 52 26 22 60 81
55 95 -4 10 -1 21 7 26 10 6 8 9 -10 9 -16 0 -39 -16 -68 -47z m-83 -156 c0
-2 -9 -14 -20 -27 -22 -25 -26 -20 -10 11 9 16 30 27 30 16z m-42 -98 c-2 -6
-8 -10 -13 -10 -5 0 -11 4 -13 10 -2 6 4 11 13 11 9 0 15 -5 13 -11z"/>
<path d="M3330 8042 c-26 -21 -35 -79 -25 -159 6 -44 9 -53 16 -38 4 11 8 37
8 58 1 20 5 37 10 37 5 0 12 16 15 35 8 43 19 44 62 5 l34 -30 -34 -14 c-46
-19 -63 -67 -41 -119 8 -20 24 -39 37 -43 13 -4 25 -10 28 -13 3 -4 22 -17 42
-29 35 -22 37 -22 43 -3 3 10 0 30 -6 44 -9 20 -9 33 1 57 10 23 10 34 1 43
-6 6 -11 22 -11 36 0 35 -37 107 -67 131 -32 25 -84 26 -113 2z"/>
<path d="M4915 8050 c-3 -5 -1 -10 4 -10 6 0 11 5 11 10 0 6 -2 10 -4 10 -3 0
-8 -4 -11 -10z"/>
<path d="M2370 7969 c-17 -45 -38 -92 -46 -105 -15 -21 -14 -22 8 -17 17 3 19
2 9 -5 -8 -6 -11 -17 -6 -32 5 -15 4 -20 -4 -16 -7 4 -11 -1 -11 -13 0 -12 3
-21 8 -21 8 0 32 49 32 67 0 7 5 13 10 13 6 0 8 12 5 28 -3 15 -2 21 1 15 9
-19 22 -16 29 8 4 13 0 27 -11 40 -9 10 -14 19 -10 19 4 0 18 -12 31 -26 24
-25 25 -26 25 -6 0 12 11 32 25 46 16 16 22 31 18 42 -5 15 -7 15 -16 -1 -16
-30 -47 -56 -58 -49 -10 6 -8 27 7 77 3 9 1 17 -5 17 -5 0 -24 -37 -41 -81z"/>
<path d="M5200 8040 c0 -5 5 -10 10 -10 6 0 10 5 10 10 0 6 -4 10 -10 10 -5 0
-10 -4 -10 -10z"/>
<path d="M8150 8020 c-7 -4 -9 -13 -5 -20 5 -9 2 -10 -14 -5 -12 3 -21 2 -21
-4 0 -5 -6 -16 -13 -23 -35 -37 -112 -176 -103 -186 3 -3 14 2 23 10 10 8 50
32 88 53 39 21 84 53 102 72 31 34 31 34 10 42 -12 5 -31 18 -41 30 -17 18
-17 21 -3 15 9 -3 17 -2 17 4 0 14 -24 22 -40 12z m-100 -174 c0 -3 -4 -8 -10
-11 -5 -3 -10 -1 -10 4 0 6 5 11 10 11 6 0 10 -2 10 -4z"/>
<path d="M1180 7955 c0 -10 9 -15 26 -15 16 0 37 -11 50 -26 31 -32 31 -17 0
17 -27 32 -76 47 -76 24z"/>
<path d="M2650 7951 c0 -5 7 -15 17 -22 15 -13 15 -12 4 9 -12 23 -21 28 -21
13z"/>
<path d="M4880 7937 c-23 -20 -80 -100 -80 -111 0 -3 -11 -17 -25 -32 -14 -15
-25 -39 -25 -53 0 -14 -4 -32 -8 -39 -11 -16 -3 -74 9 -66 5 3 9 14 9 25 0 10
4 19 9 19 11 0 23 -63 16 -83 -4 -8 -2 -18 4 -22 6 -3 11 1 11 9 0 9 3 16 8
16 9 0 32 63 41 120 5 25 15 58 24 75 l16 30 12 -33 c6 -17 14 -30 19 -27 16
10 20 68 6 96 -8 16 -12 43 -9 63 5 42 -2 44 -37 13z m15 -87 c3 -5 1 -10 -4
-10 -6 0 -11 5 -11 10 0 6 2 10 4 10 3 0 8 -4 11 -10z"/>
<path d="M2223 7928 c2 -7 -4 -24 -15 -37 -10 -13 -15 -27 -12 -30 4 -3 9 -1
11 6 2 6 13 21 24 34 23 27 23 25 3 33 -10 4 -14 1 -11 -6z"/>
<path d="M2610 7925 c0 -8 4 -15 10 -15 5 0 7 7 4 15 -4 8 -8 15 -10 15 -2 0
-4 -7 -4 -15z"/>
<path d="M1312 7865 c6 -14 13 -23 16 -21 7 7 -9 46 -18 46 -5 0 -4 -11 2 -25z"/>
<path d="M1170 7876 c0 -2 7 -6 15 -10 8 -3 15 -1 15 4 0 6 -7 10 -15 10 -8 0
-15 -2 -15 -4z"/>
<path d="M1210 7869 c0 -9 7 -19 15 -23 8 -3 15 -12 15 -20 0 -8 6 -19 13 -23
8 -4 19 -17 25 -28 11 -20 11 -20 12 2 0 12 -18 41 -40 65 -26 28 -40 37 -40
27z"/>
<path d="M8270 7836 c-7 -18 -7 -33 0 -46 14 -25 13 -30 -6 -30 -11 0 -14 6
-9 20 4 11 2 20 -4 20 -6 0 -11 9 -11 20 0 33 -25 23 -49 -20 -25 -45 -35 -49
-51 -19 -11 20 -11 20 -34 -3 -34 -35 -75 -92 -74 -103 0 -5 -10 -15 -24 -22
-13 -7 -33 -21 -43 -33 -16 -18 -16 -20 -2 -20 10 0 17 -5 17 -11 0 -6 -9 -8
-20 -4 -22 7 -29 -18 -9 -31 8 -5 8 -9 -1 -14 -7 -4 -9 -13 -5 -20 6 -10 10
-10 19 1 43 56 134 81 187 51 23 -12 46 -17 72 -14 38 4 71 -12 64 -32 -4 -11
59 -66 75 -66 12 0 4 41 -16 85 -38 85 -46 109 -46 150 0 24 5 47 10 50 6 4 8
10 5 15 -11 17 14 20 54 6 22 -7 38 -10 36 -5 -3 4 -1 10 5 14 5 3 10 14 10
24 0 34 -24 50 -82 57 -56 6 -58 6 -68 -20z m60 -308 c0 -4 -6 -5 -14 -2 -8 3
-12 12 -9 21 5 12 7 12 14 1 5 -7 9 -16 9 -20z"/>
<path d="M2155 7840 c-3 -6 1 -7 9 -4 18 7 21 14 7 14 -6 0 -13 -4 -16 -10z"/>
<path d="M2520 7840 c8 -5 22 -9 30 -9 10 0 8 3 -5 9 -27 12 -43 12 -25 0z"/>
<path d="M1208 7833 c7 -3 16 -2 19 1 4 3 -2 6 -13 5 -11 0 -14 -3 -6 -6z"/>
<path d="M2130 7802 c0 -6 -7 -18 -16 -26 -13 -14 -13 -16 0 -16 15 0 32 37
22 47 -3 4 -6 1 -6 -5z"/>
<path d="M2290 7784 c0 -8 5 -12 10 -9 6 3 10 10 10 16 0 5 -4 9 -10 9 -5 0
-10 -7 -10 -16z"/>
<path d="M7784 7762 c3 -6 -2 -15 -11 -21 -17 -9 -17 -10 0 -17 21 -8 24 -6
29 20 1 10 -3 21 -11 24 -8 3 -11 0 -7 -6z"/>
<path d="M8480 7754 c0 -8 5 -12 10 -9 6 4 8 11 5 16 -9 14 -15 11 -15 -7z"/>
<path d="M2493 7745 c-17 -18 -18 -44 -2 -28 6 6 18 9 25 6 9 -3 14 2 14 16 0
24 -19 27 -37 6z"/>
<path d="M2277 7733 c-4 -3 -7 -15 -7 -26 0 -16 3 -17 15 -7 8 7 15 19 15 26
0 15 -12 19 -23 7z"/>
<path d="M7732 7698 c-17 -17 -15 -33 3 -18 12 10 15 10 15 -3 0 -8 -6 -17
-12 -20 -10 -3 -10 -8 -2 -16 9 -10 13 -6 18 14 9 34 -5 60 -22 43z"/>
<path d="M2477 7670 c3 -11 7 -20 9 -20 2 0 4 9 4 20 0 11 -4 20 -9 20 -5 0
-7 -9 -4 -20z"/>
<path d="M2514 7675 c-10 -26 1 -35 13 -10 6 14 7 25 2 25 -5 0 -12 -7 -15
-15z"/>
<path d="M7808 7683 c7 -3 16 -2 19 1 4 3 -2 6 -13 5 -11 0 -14 -3 -6 -6z"/>
<path d="M2290 7670 c0 -5 -7 -10 -15 -10 -8 0 -15 -7 -15 -15 0 -14 3 -13 25
2 25 19 32 33 15 33 -5 0 -10 -4 -10 -10z"/>
<path d="M2320 7664 c0 -14 3 -14 15 -4 8 7 15 14 15 16 0 2 -7 4 -15 4 -8 0
-15 -7 -15 -16z"/>
<path d="M7701 7644 c0 -11 3 -14 6 -6 3 7 2 16 -1 19 -3 4 -6 -2 -5 -13z"/>
<path d="M2613 7628 c-2 -16 1 -18 10 -9 7 7 8 14 1 21 -6 6 -10 2 -11 -12z"/>
<path d="M2550 7594 c0 -8 5 -12 10 -9 6 4 8 11 5 16 -9 14 -15 11 -15 -7z"/>
<path d="M3571 7584 c0 -11 3 -14 6 -6 3 7 2 16 -1 19 -3 4 -6 -2 -5 -13z"/>
<path d="M2589 7573 c-13 -16 -12 -17 4 -4 16 13 21 21 13 21 -2 0 -10 -8 -17
-17z"/>
<path d="M4320 7548 c0 -36 50 -54 135 -49 44 2 62 16 46 35 -10 12 -28 14
-79 11 -51 -2 -71 0 -84 12 -17 15 -18 14 -18 -9z"/>
<path d="M3031 7534 c0 -11 3 -14 6 -6 3 7 2 16 -1 19 -3 4 -6 -2 -5 -13z"/>
<path d="M7900 7521 c0 -5 7 -14 15 -21 16 -14 18 -10 9 14 -6 17 -24 22 -24
7z"/>
<path d="M1430 7425 l0 -47 32 6 c43 9 61 25 47 42 -6 8 -18 14 -27 14 -8 0
-24 7 -34 17 -17 15 -18 14 -18 -32z"/>
<path d="M4124 7462 c-26 -17 -20 -37 15 -50 105 -40 148 -52 186 -52 36 0 65
13 65 30 0 3 -38 6 -84 6 -95 2 -163 26 -158 57 3 18 -6 22 -24 9z"/>
<path d="M6133 7182 c-12 -2 -29 -15 -38 -29 -15 -22 -15 -31 -5 -69 7 -24 10
-56 7 -70 -10 -56 30 -115 64 -93 26 16 41 11 29 -11 -7 -14 -21 -20 -42 -20
-24 0 -29 -3 -21 -11 20 -20 60 -1 77 35 18 38 21 117 6 146 -15 28 -1 30 56
9 55 -21 134 -82 134 -105 0 -23 13 -16 43 22 28 34 28 36 8 41 -12 3 -21 9
-21 14 0 18 -88 96 -133 118 -45 21 -112 31 -164 23z m72 -143 c10 -15 -1 -23
-20 -15 -9 3 -13 10 -10 16 8 13 22 13 30 -1z"/>
<path d="M3960 7081 c0 -5 7 -12 16 -15 14 -5 15 -4 4 9 -14 17 -20 19 -20 6z"/>
<path d="M4303 7066 c-25 -26 -29 -36 -12 -36 5 0 7 5 4 10 -3 6 -2 10 4 10 5
0 13 -5 16 -10 10 -16 25 -1 25 26 0 30 -9 30 -37 0z m27 -12 c0 -8 -5 -12
-10 -9 -6 4 -8 11 -5 16 9 14 15 11 15 -7z"/>
<path d="M5847 6879 c7 -7 15 -10 18 -7 3 3 -2 9 -12 12 -14 6 -15 5 -6 -5z"/>
<path d="M6165 6860 l-50 -7 45 0 c25 0 59 3 75 7 26 7 27 8 5 7 -14 0 -47 -3
-75 -7z"/>
<path d="M5862 6638 c5 -15 52 -23 76 -13 14 5 14 7 2 15 -23 15 -82 12 -78
-2z"/>
<path d="M6114 6553 c-10 -16 -26 -18 -119 -16 -144 3 -181 -17 -110 -58 27
-16 33 -25 25 -34 -15 -18 13 -39 42 -30 36 12 199 127 195 138 -6 18 -22 18
-33 0z"/>
<path d="M7468 6451 c7 -4 12 -12 10 -17 -6 -20 38 -87 83 -128 27 -24 82 -60
122 -79 88 -43 347 -141 353 -134 5 4 -60 47 -136 90 -120 66 -326 195 -361
225 -16 13 -29 20 -29 16 0 -5 -7 2 -16 14 -8 12 -21 22 -27 22 -8 0 -8 -3 1
-9z"/>
<path d="M5120 6320 c0 -34 -4 -49 -11 -45 -7 5 -9 -5 -7 -26 3 -33 5 -34 51
-37 26 -2 47 -7 47 -11 0 -5 10 -12 23 -16 12 -4 29 -9 37 -12 28 -9 225 -3
288 9 67 13 78 24 35 34 -16 4 -45 18 -65 31 -21 12 -42 23 -47 23 -5 0 -14 7
-21 15 -7 8 -16 12 -21 9 -14 -8 -118 19 -112 29 3 5 -4 6 -15 3 -11 -4 -37 0
-58 8 -22 8 -51 17 -66 20 -14 3 -33 9 -42 12 -13 5 -16 -2 -16 -46z m110 -84
c0 -2 -7 -6 -15 -10 -8 -3 -15 -1 -15 4 0 6 7 10 15 10 8 0 15 -2 15 -4z"/>
<path d="M6196 6249 c-33 -11 -61 -21 -63 -23 -2 -2 1 -44 7 -92 13 -101 51
-192 99 -238 28 -27 33 -28 56 -16 64 34 88 202 44 300 -17 39 -64 91 -79 89
-3 -1 -32 -10 -64 -20z"/>
<path d="M5930 6237 c0 -9 -13 -18 -32 -22 -18 -4 -39 -12 -45 -17 -9 -7 -13
-6 -13 3 0 12 -2 12 -9 0 -5 -8 -23 -14 -40 -14 -17 0 -31 -4 -31 -9 0 -5 -10
-6 -23 -3 -14 4 -30 -1 -44 -15 -12 -11 -31 -20 -42 -20 -11 0 -23 -4 -26 -10
-4 -6 8 -10 29 -10 19 0 38 -4 41 -10 3 -6 -4 -10 -17 -10 -17 0 -19 -3 -9 -9
11 -7 9 -14 -13 -36 -15 -15 -26 -29 -24 -31 3 -2 87 -6 189 -9 101 -3 197 -8
212 -11 l29 -6 -6 89 c-3 48 -5 96 -6 106 0 13 -8 17 -34 17 -19 0 -45 9 -60
21 -20 16 -26 17 -26 6z"/>
<path d="M7665 6179 c59 -62 233 -198 258 -203 12 -2 45 -10 72 -16 70 -17
156 -13 170 7 11 15 15 14 46 -5 69 -43 115 -96 163 -187 14 -27 26 -44 26
-37 0 27 -60 130 -104 179 -53 58 -149 112 -301 168 -181 67 -259 97 -302 116
-64 29 -71 23 -28 -22z"/>
<path d="M6090 6203 c2 -75 42 -234 64 -252 7 -6 1 22 -12 62 -13 40 -27 98
-30 130 -2 32 -9 60 -13 63 -5 3 -9 2 -9 -3z"/>
<path d="M5500 6130 c-23 -7 -23 -8 -3 -9 12 -1 23 -6 25 -12 5 -16 78 0 78
17 0 16 -57 18 -100 4z"/>
<path d="M5453 6103 c9 -2 23 -2 30 0 6 3 -1 5 -18 5 -16 0 -22 -2 -12 -5z"/>
<path d="M8488 5933 c7 -3 16 -2 19 1 4 3 -2 6 -13 5 -11 0 -14 -3 -6 -6z"/>
<path d="M8529 5927 c5 -5 24 -7 42 -5 33 3 33 4 -8 8 -23 3 -39 2 -34 -3z"/>
<path d="M6146 5898 c14 -26 48 -58 60 -58 6 0 -4 16 -23 35 -36 36 -49 44
-37 23z"/>
<path d="M8648 5873 c7 -3 16 -2 19 1 4 3 -2 6 -13 5 -11 0 -14 -3 -6 -6z"/>
<path d="M6340 5846 c0 -10 112 -96 123 -95 7 0 1 8 -13 17 -14 9 -41 32 -61
50 -34 30 -49 38 -49 28z"/>
<path d="M6671 5661 c-9 -6 -10 -11 -2 -15 6 -4 18 0 27 8 12 12 12 16 2 16
-7 0 -19 -4 -27 -9z"/>
<path d="M5840 5583 c0 -5 9 -19 19 -30 11 -12 17 -24 13 -29 -4 -4 -2 -5 3
-2 14 8 80 -24 80 -39 0 -6 3 -15 8 -19 4 -4 7 -2 7 4 0 15 46 16 55 2 3 -5
14 -10 23 -10 9 0 -26 23 -78 51 -52 27 -102 57 -112 66 -10 9 -18 12 -18 6z"/>
<path d="M6640 5525 c0 -23 26 -65 40 -65 10 0 40 57 40 75 0 6 -16 11 -40 10
-33 0 -40 -3 -40 -20z m48 -34 c3 -8 -1 -12 -9 -9 -7 2 -15 10 -17 17 -3 8 1
12 9 9 7 -2 15 -10 17 -17z"/>
<path d="M6100 5442 c0 -8 110 -46 115 -40 2 2 -23 13 -56 25 -32 12 -59 19
-59 15z"/>
<path d="M6245 5390 c27 -12 43 -12 25 0 -8 5 -22 9 -30 9 -10 0 -8 -3 5 -9z"/>
<path d="M6865 5306 c-64 -31 -135 -87 -135 -106 0 -5 -3 -17 -6 -27 -3 -10 4
-1 16 20 22 40 89 88 175 125 28 12 43 21 35 22 -9 0 -47 -15 -85 -34z"/>
<path d="M6517 5289 c7 -7 15 -10 18 -7 3 3 -2 9 -12 12 -14 6 -15 5 -6 -5z"/>
<path d="M8960 5080 c0 -5 7 -10 15 -10 8 0 15 5 15 10 0 6 -7 10 -15 10 -8 0
-15 -4 -15 -10z"/>
<path d="M8761 5017 c-149 -50 -178 -63 -157 -68 30 -8 62 -1 191 43 110 37
141 53 148 73 4 8 5 15 4 14 -1 0 -85 -28 -186 -62z"/>
<path d="M8407 5063 c-4 -3 -7 -20 -7 -36 l0 -29 20 23 c26 32 25 17 -5 -71
-27 -80 -31 -105 -14 -94 8 4 9 -1 5 -17 -7 -23 -7 -23 9 -5 8 11 11 24 7 28
-11 11 -3 56 11 65 6 4 8 -4 4 -23 -6 -27 -6 -27 5 -6 8 17 8 29 -1 48 -13 29
-6 47 10 24 8 -12 9 -11 6 5 -3 11 -8 37 -12 58 -5 34 -22 47 -38 30z"/>
<path d="M5770 5010 c8 -5 22 -10 30 -10 13 0 13 1 0 10 -8 5 -22 10 -30 10
-13 0 -13 -1 0 -10z"/>
<path d="M5845 4990 c3 -5 11 -10 16 -10 6 0 7 5 4 10 -3 6 -11 10 -16 10 -6
0 -7 -4 -4 -10z"/>
<path d="M4246 4855 c4 -8 11 -15 16 -15 6 0 5 6 -2 15 -7 8 -14 15 -16 15 -2
0 -1 -7 2 -15z"/>
<path d="M8686 4844 c-3 -9 -4 -20 -1 -24 9 -15 35 1 35 21 0 23 -25 25 -34 3z"/>
<path d="M6770 4820 c0 -5 5 -10 10 -10 6 0 10 5 10 10 0 6 -4 10 -10 10 -5 0
-10 -4 -10 -10z"/>
<path d="M8487 4790 c-9 -24 -15 -46 -12 -48 7 -7 37 68 33 80 -2 6 -12 -9
-21 -32z"/>
<path d="M6670 4805 c0 -8 4 -15 9 -15 5 0 11 7 15 15 3 9 0 15 -9 15 -8 0
-15 -7 -15 -15z"/>
<path d="M4281 4785 c0 -5 6 -19 14 -29 8 -11 15 -15 15 -10 0 6 -7 19 -15 30
-8 10 -14 15 -14 9z"/>
<path d="M8960 4770 c0 -5 5 -10 10 -10 6 0 10 5 10 10 0 6 -4 10 -10 10 -5 0
-10 -4 -10 -10z"/>
<path d="M8390 4729 c0 -5 5 -7 10 -4 6 3 10 8 10 11 0 2 -4 4 -10 4 -5 0 -10
-5 -10 -11z"/>
<path d="M8457 4711 c-4 -17 -3 -21 5 -13 5 5 8 16 6 23 -3 8 -7 3 -11 -10z"/>
<path d="M8381 4684 c0 -11 3 -14 6 -6 3 7 2 16 -1 19 -3 4 -6 -2 -5 -13z"/>
<path d="M8332 4670 c-7 -11 -12 -28 -12 -37 1 -10 7 -3 16 16 16 38 14 50 -4
21z"/>
<path d="M5971 4514 c0 -11 3 -14 6 -6 3 7 2 16 -1 19 -3 4 -6 -2 -5 -13z"/>
<path d="M5950 4458 c0 -13 -4 -28 -10 -34 -5 -5 -22 -54 -38 -109 -16 -55
-39 -121 -50 -146 -12 -26 -28 -75 -36 -110 -7 -35 -28 -102 -46 -149 -17 -47
-36 -98 -41 -115 -5 -16 -37 -82 -73 -145 l-64 -115 141 -3 c78 -1 146 -1 152
2 6 2 29 39 50 82 22 44 44 86 51 94 7 8 28 46 48 83 20 38 43 78 51 90 8 12
15 30 15 40 0 10 4 16 9 13 5 -3 14 23 21 57 9 49 9 78 0 128 -13 71 -41 163
-69 224 -10 22 -26 59 -36 82 -13 29 -21 39 -27 30 -10 -16 -10 -29 1 -23 4 3
13 -7 20 -22 11 -25 10 -26 -4 -7 -12 16 -18 17 -24 7 -6 -11 -10 -10 -16 5
-5 10 -7 25 -6 35 1 9 -3 19 -9 23 -6 4 -10 -4 -10 -17z m7 -50 c-3 -8 -6 -5
-6 6 -1 11 2 17 5 13 3 -3 4 -12 1 -19z m92 -83 c1 -5 -4 -3 -9 5 -9 13 -11
13 -20 0 -8 -12 -10 -10 -10 11 0 14 3 29 7 33 7 7 32 -31 32 -49z m68 -267
c-3 -7 -5 -2 -5 12 0 14 2 19 5 13 2 -7 2 -19 0 -25z m-20 -100 c-3 -8 -6 -5
-6 6 -1 11 2 17 5 13 3 -3 4 -12 1 -19z m-54 -50 c-4 -7 -6 -25 -4 -40 1 -14
-1 -28 -6 -31 -4 -3 -8 9 -7 26 2 50 3 57 15 57 6 0 7 -6 2 -12z"/>
<path d="M8138 4334 c-29 -46 -34 -64 -20 -64 9 0 37 45 51 83 16 42 -1 31
-31 -19z"/>
<path d="M8035 4209 c-28 -28 -85 -78 -127 -112 -43 -33 -76 -62 -75 -64 2 -1
27 6 57 17 93 34 170 96 196 158 28 69 15 69 -51 1z"/>
<path d="M8530 4140 c0 -5 5 -10 10 -10 6 0 10 5 10 10 0 6 -4 10 -10 10 -5 0
-10 -4 -10 -10z"/>
<path d="M7315 4056 c-27 -15 -35 -28 -25 -41 4 -5 9 -13 9 -17 2 -14 6 -13
41 9 23 15 29 23 18 23 -22 0 -23 9 -2 24 13 10 13 12 -3 13 -10 0 -27 -4 -38
-11z m15 -36 c0 -5 -4 -10 -10 -10 -5 0 -10 5 -10 10 0 6 5 10 10 10 6 0 10
-4 10 -10z"/>
<path d="M7410 3990 c-8 -5 -10 -10 -5 -10 6 0 17 5 25 10 8 5 11 10 5 10 -5
0 -17 -5 -25 -10z"/>
<path d="M7326 3957 c-42 -24 -61 -51 -29 -41 39 12 63 28 63 40 0 7 8 15 18
17 12 3 12 5 2 5 -8 1 -33 -9 -54 -21z"/>
<path d="M7391 3598 c-1 -67 3 -95 17 -120 10 -18 31 -64 47 -103 16 -38 33
-74 38 -80 7 -6 7 -3 2 10 -4 11 -17 55 -28 97 -12 42 -25 75 -29 72 -5 -3 -6
7 -2 22 5 18 3 25 -4 20 -6 -4 -8 2 -5 15 3 11 0 30 -6 42 -6 12 -15 42 -20
67 -8 41 -9 37 -10 -42z"/>
<path d="M9581 3613 c0 -31 2 -34 9 -18 12 28 12 55 0 55 -5 0 -10 -17 -9 -37z"/>
<path d="M6975 3440 c-3 -5 -2 -10 4 -10 5 0 13 5 16 10 3 6 2 10 -4 10 -5 0
-13 -4 -16 -10z"/>
<path d="M7713 3334 c-8 -23 15 -215 34 -271 24 -73 35 -82 49 -40 7 20 32 64
55 99 24 35 59 95 79 133 21 39 48 75 61 82 20 11 0 13 -124 13 -125 0 -149
-2 -154 -16z"/>
<path d="M6160 3199 c0 -5 5 -7 10 -4 6 3 10 8 10 11 0 2 -4 4 -10 4 -5 0 -10
-5 -10 -11z"/>
<path d="M6005 3098 c-38 -27 -101 -69 -140 -95 -38 -25 -73 -51 -77 -57 -12
-18 -9 -48 5 -43 6 2 11 11 9 20 -2 10 6 19 22 23 13 3 33 17 45 30 12 14 26
22 31 19 12 -7 70 44 70 62 0 7 3 13 8 14 31 3 48 11 62 28 8 11 26 21 39 23
20 2 22 5 10 14 -11 8 -30 -1 -84 -38z"/>
<path d="M5985 3050 c-3 -5 -1 -10 4 -10 6 0 11 5 11 10 0 6 -2 10 -4 10 -3 0
-8 -4 -11 -10z"/>
<path d="M7167 2620 c3 -11 7 -20 9 -20 2 0 4 9 4 20 0 11 -4 20 -9 20 -5 0
-7 -9 -4 -20z"/>
<path d="M7913 2548 c-16 -26 -33 -61 -33 -69 0 -5 9 -9 19 -9 33 0 304 -136
354 -177 90 -75 120 -79 141 -20 16 43 -11 69 -111 107 -96 36 -292 131 -335
161 -21 15 -28 17 -35 7z"/>
<path d="M7815 2440 c-8 -13 5 -13 25 0 13 8 13 10 -2 10 -9 0 -20 -4 -23 -10z"/>
<path d="M7271 2345 c0 -11 4 -29 9 -40 8 -18 9 -18 9 5 0 14 -4 32 -9 40 -8
12 -10 12 -9 -5z"/>
<path d="M7300 2262 c0 -12 5 -22 10 -22 6 0 10 -9 10 -21 0 -23 69 -203 124
-322 19 -43 40 -92 45 -110 12 -41 79 -193 142 -324 27 -57 49 -107 49 -113 0
-5 30 -67 67 -137 36 -71 89 -173 118 -228 65 -125 137 -257 148 -270 33 -40
95 -149 90 -158 -3 -5 -1 -7 5 -3 16 10 62 -15 62 -33 0 -14 -2 -14 -10 -1
-15 24 -12 1 5 -28 8 -15 24 -49 35 -75 13 -31 30 -51 46 -57 13 -5 27 -17 30
-25 4 -8 12 -15 20 -15 8 0 14 -6 14 -12 0 -7 11 -1 25 13 30 30 27 70 -11
114 -21 24 -26 26 -40 14 -16 -13 -17 -11 -12 12 2 14 -1 31 -10 38 -7 7 -11
22 -9 32 3 11 2 19 -1 19 -4 0 -16 19 -27 43 -11 23 -23 44 -26 47 -12 9 -99
140 -99 149 0 5 -7 15 -16 22 -13 11 -54 68 -99 138 -5 9 -22 35 -37 58 -16
23 -28 44 -28 48 0 3 -5 11 -10 18 -21 23 -89 132 -90 141 0 5 -6 17 -14 25
-7 9 -37 61 -66 116 -73 139 -74 141 -113 225 -49 105 -166 351 -178 372 -5
10 -9 25 -9 33 0 8 -4 15 -9 15 -5 0 -11 10 -14 23 -5 25 -102 245 -111 254
-3 4 -6 -3 -6 -15z m934 -1720 c2 -4 1 -14 -4 -22 -7 -11 -12 -12 -21 -3 -6 6
-8 16 -5 22 8 13 23 14 30 3z m35 -111 c18 -12 7 -28 -24 -33 -13 -3 -22 -2
-20 3 3 4 1 10 -5 14 -5 3 -10 10 -10 16 0 11 40 12 59 0z"/>
<path d="M7670 2010 c0 -5 5 -10 10 -10 6 0 10 5 10 10 0 6 -4 10 -10 10 -5 0
-10 -4 -10 -10z"/>
<path d="M7691 1986 c-12 -14 -12 -22 -3 -37 7 -10 12 -24 12 -31 0 -7 13 -40
29 -73 29 -60 35 -74 111 -260 38 -92 101 -229 121 -265 5 -8 15 -30 23 -47
19 -41 24 -42 18 -3 -2 17 -8 30 -13 30 -5 0 -9 12 -9 26 0 14 -13 52 -30 86
-16 33 -30 64 -30 69 0 5 -11 33 -25 63 -14 30 -25 61 -25 68 0 7 -13 38 -29
69 -15 31 -41 90 -56 130 -16 41 -35 85 -44 98 -9 14 -21 40 -26 59 -9 32 -11
34 -24 18z"/>
<path d="M6461 1653 c-1 -34 12 -44 23 -17 3 8 2 12 -3 9 -5 -3 -12 5 -14 17
-3 17 -5 14 -6 -9z"/>
<path d="M6466 1525 c-9 -26 -7 -35 8 -35 23 0 30 20 14 37 -14 13 -16 13 -22
-2z"/>
<path d="M6476 1434 c-9 -22 -7 -44 2 -44 5 0 9 14 9 30 0 34 -2 37 -11 14z"/>
<path d="M6490 1345 c0 -8 2 -15 4 -15 2 0 6 7 10 15 3 8 1 15 -4 15 -6 0 -10
-7 -10 -15z"/>
<path d="M6505 1280 c3 -5 8 -10 11 -10 2 0 4 5 4 10 0 6 -5 10 -11 10 -5 0
-7 -4 -4 -10z"/>
<path d="M6474 1264 c3 -9 6 -23 6 -31 0 -9 3 -13 7 -10 3 4 12 -1 19 -11 12
-16 13 -16 14 0 0 9 -7 23 -15 32 -8 8 -15 19 -15 25 0 6 -5 11 -11 11 -6 0
-8 -7 -5 -16z"/>
<path d="M6495 900 c10 -35 25 -49 25 -23 0 11 -7 27 -16 34 -15 12 -16 11 -9
-11z"/>
<path d="M6465 210 c-3 -5 -1 -10 4 -10 6 0 11 5 11 10 0 6 -2 10 -4 10 -3 0
-8 -4 -11 -10z"/>
<path d="M6492 30 c0 -19 2 -27 5 -17 2 9 2 25 0 35 -3 9 -5 1 -5 -18z"/>
<path d="M6560 37 c0 -8 7 -20 15 -27 12 -10 15 -10 15 3 0 8 -7 20 -15 27
-12 10 -15 10 -15 -3z"/>
</g>
</svg>
